<svg xmlns="http://www.w3.org/2000/svg" width="21" height="36"><path fill="red" d="M8.745 21.723c.257-.497.498-1.006.745-1.509l.06-.12a8.894 8.894 0 01-.255-.256 19.954 19.954 0 01-1.027-1.169c-.335-.41-.666-.826-1.006-1.233-.336-.404-.677-.805-.999-1.22-.714-.924-1.38-1.887-2.045-2.85a25.96 25.96 0 01-.94-1.433c-.26-.431-.464-.902-.681-1.358-.51-1.067-1.038-2.125-1.436-3.243a24.277 24.277 0 01-.51-1.582 6.642 6.642 0 01-.204-1.125A3.683 3.683 0 01.479 3.58c.021-.115.049-.221.09-.332.045-.124.112-.316.192-.436a3.28 3.28 0 01.18-.248c.006-.12.022-.24.037-.36.062-.498.172-1.06.562-1.406.248-.22.526-.35.859-.35.233 0 .513.077.71.203.203.13.405.282.564.464.19.218.36.451.53.684.175.227.352.448.531.67.653.815 1.293 1.642 1.96 2.443a25.111 25.111 0 002.228 2.336c.784.728 1.592 1.428 2.398 2.13.777.676 1.557 1.347 2.353 1.999a34.529 34.529 0 002.522 1.808c.465.299.935.59 1.401.887.433.275.874.548 1.28.865.298.232.623.453.88.735.243.264.45.551.568.898.131.386.128.8-.009 1.185-.165.464-.488.842-.781 1.224-.15.192-.298.385-.452.574-.337.41-.69.81-1.034 1.214-.282.33-.548.672-.81 1.018-.488.681-.965 1.373-1.45 2.055-.297.42-.618.82-.943 1.214-.24.29-.513.555-.78.82-.362.36-.749.695-1.124 1.041l-.047.044-.439.536c-.21.258-.414.522-.631.771-.525.606-1.04 1.222-1.572 1.819-.282.317-.563.637-.844.954-.155.175-.31.35-.46.53-.157.185-.313.39-.501.543-.198.159-.397.31-.605.453a.736.736 0 01-.47.128l-.31.322a16.21 16.21 0 01-1.08 1.051c-.278.238-.55.49-.846.704-.423.307-.884.654-1.424.628a1.07 1.07 0 01-.737-.317 1.094 1.094 0 01-.268-.475c-.198-.56.11-1.145.345-1.634.119-.245.246-.485.37-.727.227-.437.454-.875.672-1.318.477-.972.927-1.958 1.407-2.929.5-1.013 1.016-2.017 1.542-3.016a601.12 601.12 0 001.702-3.26c.564-1.09 0 0 0 0zm8.346-5.194c-.371-.235-.75-.46-1.127-.683.016.03.031.062.046.094.097.174.146.36.148.56.022-.01.044-.017.066-.025.223-.083.475-.003.683.11.06-.023.121-.041.184-.056.062-.013 0 0 0 0zM6.9 11.286a.881.881 0 01.333-.502 9.795 9.795 0 01-.362-.455c-.29-.39-.597-.772-.864-1.18-.289-.439-.58-.876-.85-1.329a38.206 38.206 0 00-.4-.664c.243.523.482 1.05.721 1.575.298.654.599 1.32.993 1.921.14.213.283.425.429.634.145.21 0 0 0 0zm7.605 3.676a38.848 38.848 0 01-3.19-2.3c.133.135.266.272.397.409.586.61 1.182 1.215 1.746 1.847.17.19.335.384.498.581l.059-.038c.241-.151.52-.275.808-.275l.038.001c-.12-.074-.238-.148-.356-.225-.119-.077 0 0 0 0zm-3.942 1.679l-.211-.219.06.124.11.125c.101.115.204.228.31.338l.147-.122-.029-.035a.723.723 0 01-.387-.211c-.109-.113 0 0 0 0zm-.945 6.495l-.483.978c-.488.986-.996 1.963-1.46 2.962a131.308 131.308 0 00-1.746 3.95c.41-.438.811-.885 1.213-1.331.134-.148.268-.297.403-.444a.894.894 0 01-.296-.467c-.07-.262-.019-.499.092-.736a4.49 4.49 0 01.43-.754c.178-.243.37-.473.558-.707l.358-.448c.239-.298.478-.599.72-.896.555-.683 1.109-1.365 1.678-2.033l.64-.75c-.132.106-.265.21-.4.311-.331.25-.731.547-1.153.547-.1 0-.2-.016-.302-.054a1.25 1.25 0 01-.252-.128c-.079-.05 0 0 0 0z"/></svg>