<svg xmlns="http://www.w3.org/2000/svg" width="42" height="28" viewBox="0 0 42 28"><g><g><path fill="red" d="M42 15.477v7.392c0 .383-.295.693-.658.693h-2.15l.002.047c0 2.42-1.869 4.39-4.165 4.39-2.296 0-4.165-1.97-4.165-4.39l.001-.047h-14.82v.047c0 2.42-1.868 4.39-4.164 4.39-2.297 0-4.165-1.97-4.165-4.39l.001-.047H4.165c-.75 0-1.36-.642-1.36-1.432v-1.525H.658c-.363 0-.657-.31-.657-.693 0-.382.294-.693.657-.693h6.314c.363 0 .657.31.657.693 0 .383-.294.693-.657.693H4.12v1.525c0 .026.02.047.044.047h3.78c.565-1.72 2.115-2.958 3.936-2.958 1.82 0 3.371 1.239 3.936 2.958H29.46v-5.222c0-.382.294-.693.658-.693.363 0 .657.31.657.693v5.222h.317c.565-1.72 2.115-2.958 3.936-2.958 1.82 0 3.371 1.239 3.936 2.958h1.72v-3.05h-.746c-1.136 0-2.06-.974-2.06-2.172v-1.478c0-.383.294-.693.657-.693h2.045c-.278-.91-1.089-1.57-2.043-1.571h-.002-7.76v.785c0 .383-.294.694-.657.694-.363 0-.658-.31-.658-.694V1.43c0-.025-.02-.046-.044-.046H4.165c-.024 0-.044.021-.044.046v12.568c0 .383-.295.693-.658.693-.363 0-.657-.31-.657-.693V1.43C2.806.64 3.416 0 4.165 0h25.252c.75 0 1.36.642 1.36 1.431v1.525h4.954c1.522 0 2.762 1.306 2.762 2.912v.738a.685.685 0 0 1-.52.678l1.087 4.585c1.662.267 2.94 1.784 2.94 3.609zM30.776 5.913h6.401v-.046c0-.842-.649-1.525-1.446-1.525h-4.955zm0 5.914h6.918L36.62 7.299h-5.844zM14.73 23.609c0-1.656-1.278-3.003-2.85-3.003-1.57 0-2.849 1.347-2.849 3.003 0 1.656 1.279 3.003 2.85 3.003 1.571 0 2.85-1.347 2.85-3.003zm23.149 0c0-1.656-1.279-3.003-2.85-3.003-1.571 0-2.85 1.347-2.85 3.003 0 1.656 1.279 3.003 2.85 3.003 1.571 0 2.85-1.347 2.85-3.003zm2.806-5.868v-1.57h-1.491v.784c0 .433.334.786.745.786zM13.24 23.609c0 .79-.61 1.432-1.36 1.432-.749 0-1.358-.642-1.358-1.432 0-.79.61-1.432 1.359-1.432.75 0 1.359.642 1.359 1.432zm23.148 0c0 .79-.61 1.432-1.359 1.432-.75 0-1.359-.642-1.359-1.432 0-.79.61-1.432 1.36-1.432.749 0 1.358.642 1.358 1.432zm-8.417-3.697c0 .384-.295.694-.658.694h-9.82c-.364 0-.658-.31-.658-.694 0-.382.294-.693.658-.693h9.82c.363 0 .658.31.658.693zm-16.835-2.957c0 .383-.295.694-.658.694H2.06c-.363 0-.657-.31-.657-.694 0-.382.294-.693.657-.693h8.418c.363 0 .658.31.658.693zm11.732-9.12l-6.313 6.653a.639.639 0 0 1-.465.203.639.639 0 0 1-.465-.203l-3.508-3.696a.72.72 0 0 1 0-.98.634.634 0 0 1 .93 0l3.043 3.206 5.848-6.163a.634.634 0 0 1 .93 0 .72.72 0 0 1 0 .98z"/></g></g></svg>