<svg xmlns="http://www.w3.org/2000/svg" width="129" height="110"><defs><linearGradient id="c" x1="64.09" x2="65.09" y1="97.64" y2="5.75" gradientUnits="userSpaceOnUse"><stop offset="0" stop-color="#17a56a"/><stop offset="1" stop-color="#75d007"/></linearGradient><filter id="a" width="158.2" height="136.2" x="-14.1" y="-13.1" filterUnits="userSpaceOnUse"><feOffset in="SourceGraphic" result="FeOffset1275Out"/><feGaussianBlur in="FeOffset1275Out" result="FeGaussianBlur1276Out" stdDeviation="5.12 5.12"/></filter><mask id="b" width="2.04" height="2.05" x="-1.02" y="-1.03"><path fill="#fff" d="M8.7 9.7h112.6v90.6H8.7z"/><path d="M24.861 12.659c7.45.07 14.901.07 22.362 0-.01.536-.02 1.629-.03 2.166 3.63.06 7.32-.338 10.921.298 2.593.577 4.12 2.902 5.675 4.85 16.876-.299 33.741-1.4 50.627-1.312 5.006.477 4.847 8.904-.17 9.263-10.303.198-20.586-.736-30.879-.835-6.433-.209-12.866-.219-19.279-.726-1.825 2.147-3.65 4.731-6.672 5.158-3.401.398-6.832.139-10.243.158-.02 7.713.1 15.425-.08 23.136 3.211-6.707 11-11.17 18.421-9.251 6.663 1.281 11.42 7.214 12.637 13.664 3.321-.14 6.643-.129 9.974-.14.31 10.456-3.85 20.971-11.54 28.126-14.482 14.162-40.483 13.865-54.596-.696-7.271-7.135-10.991-17.312-10.901-27.409 4.587-.02 9.195-.088 13.783.209.02-15.553.04-31.107-.01-46.66-.05-15.553 0 0 0 0zm2.414 2.425c.04 14.678.02 29.357.01 44.035 1.476-.01 2.962-.03 4.458-.05-.02-14.658-.02-29.318 0-43.976-1.496 0-2.982-.01-4.468-.01-1.486 0 0 0 0 0zm6.842-.01c.02 14.688 0 29.376.01 44.064l4.199-.029c.01-14.668 0-29.347.01-44.016-1.416-.01-2.823-.019-4.219-.019-1.396 0 0 0 0 0zm6.702 44.064c1.327-.01 2.663-.01 4-.01.04-14.687 0-29.366.02-44.044-1.007-.01-3.012-.01-4.02-.02-.02 14.687-.01 29.386 0 44.074.01 14.69 0 0 0 0zm6.344-41.937c.01.615.02 1.848.02 2.464 2.254.577 6.712-1.461 6.951 1.977-2.274.657-4.657.427-6.971.477l.04 2.456c2.283.308 5.076-.706 7.021.815-1.007 2.753-4.787 1.062-7.071 1.54 0 .566.02 1.708.03 2.286 3.39-.06 6.812.257 10.183-.25 2.473-.536 3.51-3.1 4.767-4.988 17.135.537 34.28 1.133 51.415 1.61 2.992-.13 2.793-4.84-.17-4.612-17.124.17-34.22 1.224-51.344 1.412-1.197-1.908-2.235-4.333-4.658-4.93-3.371-.536-6.812-.178-10.213-.257-3.402-.08 0 0 0 0zm1.306 42.137l3.96-.03c1.396-3.906 4.598-7.553 9.056-7.582 4.748-.488 8.587 3.2 10.034 7.412 1.366-.029 2.742-.07 4.119-.108-1.516-6.034-6.633-11.42-13.186-11.39-6.901-.446-12.816 5.138-13.983 11.698-1.167 6.559 0 0 0 0zm6.403-.19c4.708-.407 9.446-.794 14.093.359-1.256-3.05-4.059-5.784-7.6-5.437-3.002.338-4.877 2.822-6.493 5.078-1.615 2.256 0 0 0 0zM14.17 66.691c2.613 2.515 5.425 4.83 7.799 7.574-.33.416-.997 1.251-1.326 1.67-1.826-1.402-3.472-3.012-5.227-4.493 3.64 10.197 11.989 18.674 22.411 21.964 10.553 3.22 22.68 2.156 31.986-3.986 5.635-3.577 9.944-8.914 12.826-14.867-2.054-1.899-4.308-3.627-6.054-5.814.12-.616.38-1.858.499-2.474 2.324 1.829 4.458 3.885 6.573 5.953a77.643 77.643 0 002.184-10.545c-24.047-.03-48.094 0-72.13-.01.14 1.67.299 3.35.459 5.028zm9.145.05a62.384 62.384 0 017.97 7.504c-.39.387-1.177 1.163-1.566 1.56a63.307 63.307 0 01-8.06-7.703l.888-.764zm7.86-.506c2.872 2.425 5.844 4.83 8.188 7.791-.14.557-.419 1.66-.558 2.217-2.833-2.335-5.735-4.651-8.119-7.464.12-.636.36-1.908.489-2.544zm9.395.388c3.112 2.037 5.825 4.66 8.228 7.483-.249.517-.768 1.55-1.017 2.067-2.822-2.564-5.785-5.009-8.218-7.95.249-.399.758-1.203 1.007-1.6zm10.024.309c2.373 1.668 4.408 3.765 6.453 5.802 1.067.814 1.167 2.285.758 3.488-3.461-2.314-6.453-5.227-9.256-8.288.509-.248 1.536-.755 2.045-1.002zm8.517-.697c2.913 2.414 5.935 4.83 8.259 7.84-.16.537-.49 1.611-.649 2.147-2.782-2.365-5.665-4.68-8.039-7.463.11-.626.32-1.888.43-2.524zm9.176.447c2.853 2.265 5.585 4.74 7.96 7.514-.18.377-.54 1.122-.719 1.49-3.63-1.362-6.134-4.83-8.787-7.563l.768-.745z"/></mask></defs><g filter="url(#a)"><path fill="none" stroke="red" stroke-opacity=".2" stroke-width="4.6" d="M24.861 12.659c7.45.07 14.901.07 22.362 0-.01.536-.02 1.629-.03 2.166 3.63.06 7.32-.338 10.921.298 2.593.577 4.12 2.902 5.675 4.85 16.876-.299 33.741-1.4 50.627-1.312 5.006.477 4.847 8.904-.17 9.263-10.303.198-20.586-.736-30.879-.835-6.433-.209-12.866-.219-19.279-.726-1.825 2.147-3.65 4.731-6.672 5.158-3.401.398-6.832.139-10.243.158-.02 7.713.1 15.425-.08 23.136 3.211-6.707 11-11.17 18.421-9.251 6.663 1.281 11.42 7.214 12.637 13.664 3.321-.14 6.643-.129 9.974-.14.31 10.456-3.85 20.971-11.54 28.126-14.482 14.162-40.483 13.865-54.596-.696-7.271-7.135-10.991-17.312-10.901-27.409 4.587-.02 9.195-.088 13.783.209.02-15.553.04-31.107-.01-46.66-.05-15.553 0 0 0 0zm2.414 2.425c.04 14.678.02 29.357.01 44.035 1.476-.01 2.962-.03 4.458-.05-.02-14.658-.02-29.318 0-43.976-1.496 0-2.982-.01-4.468-.01-1.486 0 0 0 0 0zm6.842-.01c.02 14.688 0 29.376.01 44.064l4.199-.029c.01-14.668 0-29.347.01-44.016-1.416-.01-2.823-.019-4.219-.019-1.396 0 0 0 0 0zm6.702 44.064c1.327-.01 2.663-.01 4-.01.04-14.687 0-29.366.02-44.044-1.007-.01-3.012-.01-4.02-.02-.02 14.687-.01 29.386 0 44.074.01 14.69 0 0 0 0zm6.344-41.937c.01.615.02 1.848.02 2.464 2.254.577 6.712-1.461 6.951 1.977-2.274.657-4.657.427-6.971.477l.04 2.456c2.283.308 5.076-.706 7.021.815-1.007 2.753-4.787 1.062-7.071 1.54 0 .566.02 1.708.03 2.286 3.39-.06 6.812.257 10.183-.25 2.473-.536 3.51-3.1 4.767-4.988 17.135.537 34.28 1.133 51.415 1.61 2.992-.13 2.793-4.84-.17-4.612-17.124.17-34.22 1.224-51.344 1.412-1.197-1.908-2.235-4.333-4.658-4.93-3.371-.536-6.812-.178-10.213-.257-3.402-.08 0 0 0 0zm1.306 42.137l3.96-.03c1.396-3.906 4.598-7.553 9.056-7.582 4.748-.488 8.587 3.2 10.034 7.412 1.366-.029 2.742-.07 4.119-.108-1.516-6.034-6.633-11.42-13.186-11.39-6.901-.446-12.816 5.138-13.983 11.698-1.167 6.559 0 0 0 0zm6.403-.19c4.708-.407 9.446-.794 14.093.359-1.256-3.05-4.059-5.784-7.6-5.437-3.002.338-4.877 2.822-6.493 5.078-1.615 2.256 0 0 0 0zM14.17 66.691c2.613 2.515 5.425 4.83 7.799 7.574-.33.416-.997 1.251-1.326 1.67-1.826-1.402-3.472-3.012-5.227-4.493 3.64 10.197 11.989 18.674 22.411 21.964 10.553 3.22 22.68 2.156 31.986-3.986 5.635-3.577 9.944-8.914 12.826-14.867-2.054-1.899-4.308-3.627-6.054-5.814.12-.616.38-1.858.499-2.474 2.324 1.829 4.458 3.885 6.573 5.953a77.643 77.643 0 002.184-10.545c-24.047-.03-48.094 0-72.13-.01.14 1.67.299 3.35.459 5.028zm9.145.05a62.384 62.384 0 017.97 7.504c-.39.387-1.177 1.163-1.566 1.56a63.307 63.307 0 01-8.06-7.703l.888-.764zm7.86-.506c2.872 2.425 5.844 4.83 8.188 7.791-.14.557-.419 1.66-.558 2.217-2.833-2.335-5.735-4.651-8.119-7.464.12-.636.36-1.908.489-2.544zm9.395.388c3.112 2.037 5.825 4.66 8.228 7.483-.249.517-.768 1.55-1.017 2.067-2.822-2.564-5.785-5.009-8.218-7.95.249-.399.758-1.203 1.007-1.6zm10.024.309c2.373 1.668 4.408 3.765 6.453 5.802 1.067.814 1.167 2.285.758 3.488-3.461-2.314-6.453-5.227-9.256-8.288.509-.248 1.536-.755 2.045-1.002zm8.517-.697c2.913 2.414 5.935 4.83 8.259 7.84-.16.537-.49 1.611-.649 2.147-2.782-2.365-5.665-4.68-8.039-7.463.11-.626.32-1.888.43-2.524zm9.176.447c2.853 2.265 5.585 4.74 7.96 7.514-.18.377-.54 1.122-.719 1.49-3.63-1.362-6.134-4.83-8.787-7.563l.768-.745z" mask="url(&quot;#b&quot;)"/><path fill="red" fill-opacity=".2" d="M24.861 12.659c7.45.07 14.901.07 22.362 0-.01.536-.02 1.629-.03 2.166 3.63.06 7.32-.338 10.921.298 2.593.577 4.12 2.902 5.675 4.85 16.876-.299 33.741-1.4 50.627-1.312 5.006.477 4.847 8.904-.17 9.263-10.303.198-20.586-.736-30.879-.835-6.433-.209-12.866-.219-19.279-.726-1.825 2.147-3.65 4.731-6.672 5.158-3.401.398-6.832.139-10.243.158-.02 7.713.1 15.425-.08 23.136 3.211-6.707 11-11.17 18.421-9.251 6.663 1.281 11.42 7.214 12.637 13.664 3.321-.14 6.643-.129 9.974-.14.31 10.456-3.85 20.971-11.54 28.126-14.482 14.162-40.483 13.865-54.596-.696-7.271-7.135-10.991-17.312-10.901-27.409 4.587-.02 9.195-.088 13.783.209.02-15.553.04-31.107-.01-46.66-.05-15.553 0 0 0 0zm2.414 2.425c.04 14.678.02 29.357.01 44.035 1.476-.01 2.962-.03 4.458-.05-.02-14.658-.02-29.318 0-43.976-1.496 0-2.982-.01-4.468-.01-1.486 0 0 0 0 0zm6.842-.01c.02 14.688 0 29.376.01 44.064l4.199-.029c.01-14.668 0-29.347.01-44.016-1.416-.01-2.823-.019-4.219-.019-1.396 0 0 0 0 0zm6.702 44.064c1.327-.01 2.663-.01 4-.01.04-14.687 0-29.366.02-44.044-1.007-.01-3.012-.01-4.02-.02-.02 14.687-.01 29.386 0 44.074.01 14.69 0 0 0 0zm6.344-41.937c.01.615.02 1.848.02 2.464 2.254.577 6.712-1.461 6.951 1.977-2.274.657-4.657.427-6.971.477l.04 2.456c2.283.308 5.076-.706 7.021.815-1.007 2.753-4.787 1.062-7.071 1.54 0 .566.02 1.708.03 2.286 3.39-.06 6.812.257 10.183-.25 2.473-.536 3.51-3.1 4.767-4.988 17.135.537 34.28 1.133 51.415 1.61 2.992-.13 2.793-4.84-.17-4.612-17.124.17-34.22 1.224-51.344 1.412-1.197-1.908-2.235-4.333-4.658-4.93-3.371-.536-6.812-.178-10.213-.257-3.402-.08 0 0 0 0zm1.306 42.137l3.96-.03c1.396-3.906 4.598-7.553 9.056-7.582 4.748-.488 8.587 3.2 10.034 7.412 1.366-.029 2.742-.07 4.119-.108-1.516-6.034-6.633-11.42-13.186-11.39-6.901-.446-12.816 5.138-13.983 11.698-1.167 6.559 0 0 0 0zm6.403-.19c4.708-.407 9.446-.794 14.093.359-1.256-3.05-4.059-5.784-7.6-5.437-3.002.338-4.877 2.822-6.493 5.078-1.615 2.256 0 0 0 0zM14.17 66.691c2.613 2.515 5.425 4.83 7.799 7.574-.33.416-.997 1.251-1.326 1.67-1.826-1.402-3.472-3.012-5.227-4.493 3.64 10.197 11.989 18.674 22.411 21.964 10.553 3.22 22.68 2.156 31.986-3.986 5.635-3.577 9.944-8.914 12.826-14.867-2.054-1.899-4.308-3.627-6.054-5.814.12-.616.38-1.858.499-2.474 2.324 1.829 4.458 3.885 6.573 5.953a77.643 77.643 0 002.184-10.545c-24.047-.03-48.094 0-72.13-.01.14 1.67.299 3.35.459 5.028zm9.145.05a62.384 62.384 0 017.97 7.504c-.39.387-1.177 1.163-1.566 1.56a63.307 63.307 0 01-8.06-7.703l.888-.764zm7.86-.506c2.872 2.425 5.844 4.83 8.188 7.791-.14.557-.419 1.66-.558 2.217-2.833-2.335-5.735-4.651-8.119-7.464.12-.636.36-1.908.489-2.544zm9.395.388c3.112 2.037 5.825 4.66 8.228 7.483-.249.517-.768 1.55-1.017 2.067-2.822-2.564-5.785-5.009-8.218-7.95.249-.399.758-1.203 1.007-1.6zm10.024.309c2.373 1.668 4.408 3.765 6.453 5.802 1.067.814 1.167 2.285.758 3.488-3.461-2.314-6.453-5.227-9.256-8.288.509-.248 1.536-.755 2.045-1.002zm8.517-.697c2.913 2.414 5.935 4.83 8.259 7.84-.16.537-.49 1.611-.649 2.147-2.782-2.365-5.665-4.68-8.039-7.463.11-.626.32-1.888.43-2.524zm9.176.447c2.853 2.265 5.585 4.74 7.96 7.514-.18.377-.54 1.122-.719 1.49-3.63-1.362-6.134-4.83-8.787-7.563l.768-.745z"/></g><g filter="url(#a)"><path fill="none" stroke="red" stroke-opacity=".2" stroke-width="4.6" d="M24.861 12.659c7.45.07 14.901.07 22.362 0-.01.536-.02 1.629-.03 2.166 3.63.06 7.32-.338 10.921.298 2.593.577 4.12 2.902 5.675 4.85 16.876-.299 33.741-1.4 50.627-1.312 5.006.477 4.847 8.904-.17 9.263-10.303.198-20.586-.736-30.879-.835-6.433-.209-12.866-.219-19.279-.726-1.825 2.147-3.65 4.731-6.672 5.158-3.401.398-6.832.139-10.243.158-.02 7.713.1 15.425-.08 23.136 3.211-6.707 11-11.17 18.421-9.251 6.663 1.281 11.42 7.214 12.637 13.664 3.321-.14 6.643-.129 9.974-.14.31 10.456-3.85 20.971-11.54 28.126-14.482 14.162-40.483 13.865-54.596-.696-7.271-7.135-10.991-17.312-10.901-27.409 4.587-.02 9.195-.088 13.783.209.02-15.553.04-31.107-.01-46.66-.05-15.553 0 0 0 0zm2.414 2.425c.04 14.678.02 29.357.01 44.035 1.476-.01 2.962-.03 4.458-.05-.02-14.658-.02-29.318 0-43.976-1.496 0-2.982-.01-4.468-.01-1.486 0 0 0 0 0zm6.842-.01c.02 14.688 0 29.376.01 44.064l4.199-.029c.01-14.668 0-29.347.01-44.016-1.416-.01-2.823-.019-4.219-.019-1.396 0 0 0 0 0zm6.702 44.064c1.327-.01 2.663-.01 4-.01.04-14.687 0-29.366.02-44.044-1.007-.01-3.012-.01-4.02-.02-.02 14.687-.01 29.386 0 44.074.01 14.69 0 0 0 0zm6.344-41.937c.01.615.02 1.848.02 2.464 2.254.577 6.712-1.461 6.951 1.977-2.274.657-4.657.427-6.971.477l.04 2.456c2.283.308 5.076-.706 7.021.815-1.007 2.753-4.787 1.062-7.071 1.54 0 .566.02 1.708.03 2.286 3.39-.06 6.812.257 10.183-.25 2.473-.536 3.51-3.1 4.767-4.988 17.135.537 34.28 1.133 51.415 1.61 2.992-.13 2.793-4.84-.17-4.612-17.124.17-34.22 1.224-51.344 1.412-1.197-1.908-2.235-4.333-4.658-4.93-3.371-.536-6.812-.178-10.213-.257-3.402-.08 0 0 0 0zm1.306 42.137l3.96-.03c1.396-3.906 4.598-7.553 9.056-7.582 4.748-.488 8.587 3.2 10.034 7.412 1.366-.029 2.742-.07 4.119-.108-1.516-6.034-6.633-11.42-13.186-11.39-6.901-.446-12.816 5.138-13.983 11.698-1.167 6.559 0 0 0 0zm6.403-.19c4.708-.407 9.446-.794 14.093.359-1.256-3.05-4.059-5.784-7.6-5.437-3.002.338-4.877 2.822-6.493 5.078-1.615 2.256 0 0 0 0zM14.17 66.691c2.613 2.515 5.425 4.83 7.799 7.574-.33.416-.997 1.251-1.326 1.67-1.826-1.402-3.472-3.012-5.227-4.493 3.64 10.197 11.989 18.674 22.411 21.964 10.553 3.22 22.68 2.156 31.986-3.986 5.635-3.577 9.944-8.914 12.826-14.867-2.054-1.899-4.308-3.627-6.054-5.814.12-.616.38-1.858.499-2.474 2.324 1.829 4.458 3.885 6.573 5.953a77.643 77.643 0 002.184-10.545c-24.047-.03-48.094 0-72.13-.01.14 1.67.299 3.35.459 5.028zm9.145.05a62.384 62.384 0 017.97 7.504c-.39.387-1.177 1.163-1.566 1.56a63.307 63.307 0 01-8.06-7.703l.888-.764zm7.86-.506c2.872 2.425 5.844 4.83 8.188 7.791-.14.557-.419 1.66-.558 2.217-2.833-2.335-5.735-4.651-8.119-7.464.12-.636.36-1.908.489-2.544zm9.395.388c3.112 2.037 5.825 4.66 8.228 7.483-.249.517-.768 1.55-1.017 2.067-2.822-2.564-5.785-5.009-8.218-7.95.249-.399.758-1.203 1.007-1.6zm10.024.309c2.373 1.668 4.408 3.765 6.453 5.802 1.067.814 1.167 2.285.758 3.488-3.461-2.314-6.453-5.227-9.256-8.288.509-.248 1.536-.755 2.045-1.002zm8.517-.697c2.913 2.414 5.935 4.83 8.259 7.84-.16.537-.49 1.611-.649 2.147-2.782-2.365-5.665-4.68-8.039-7.463.11-.626.32-1.888.43-2.524zm9.176.447c2.853 2.265 5.585 4.74 7.96 7.514-.18.377-.54 1.122-.719 1.49-3.63-1.362-6.134-4.83-8.787-7.563l.768-.745z" mask="url(&quot;#b&quot;)"/><path fill="red" fill-opacity=".2" d="M24.861 12.659c7.45.07 14.901.07 22.362 0-.01.536-.02 1.629-.03 2.166 3.63.06 7.32-.338 10.921.298 2.593.577 4.12 2.902 5.675 4.85 16.876-.299 33.741-1.4 50.627-1.312 5.006.477 4.847 8.904-.17 9.263-10.303.198-20.586-.736-30.879-.835-6.433-.209-12.866-.219-19.279-.726-1.825 2.147-3.65 4.731-6.672 5.158-3.401.398-6.832.139-10.243.158-.02 7.713.1 15.425-.08 23.136 3.211-6.707 11-11.17 18.421-9.251 6.663 1.281 11.42 7.214 12.637 13.664 3.321-.14 6.643-.129 9.974-.14.31 10.456-3.85 20.971-11.54 28.126-14.482 14.162-40.483 13.865-54.596-.696-7.271-7.135-10.991-17.312-10.901-27.409 4.587-.02 9.195-.088 13.783.209.02-15.553.04-31.107-.01-46.66-.05-15.553 0 0 0 0zm2.414 2.425c.04 14.678.02 29.357.01 44.035 1.476-.01 2.962-.03 4.458-.05-.02-14.658-.02-29.318 0-43.976-1.496 0-2.982-.01-4.468-.01-1.486 0 0 0 0 0zm6.842-.01c.02 14.688 0 29.376.01 44.064l4.199-.029c.01-14.668 0-29.347.01-44.016-1.416-.01-2.823-.019-4.219-.019-1.396 0 0 0 0 0zm6.702 44.064c1.327-.01 2.663-.01 4-.01.04-14.687 0-29.366.02-44.044-1.007-.01-3.012-.01-4.02-.02-.02 14.687-.01 29.386 0 44.074.01 14.69 0 0 0 0zm6.344-41.937c.01.615.02 1.848.02 2.464 2.254.577 6.712-1.461 6.951 1.977-2.274.657-4.657.427-6.971.477l.04 2.456c2.283.308 5.076-.706 7.021.815-1.007 2.753-4.787 1.062-7.071 1.54 0 .566.02 1.708.03 2.286 3.39-.06 6.812.257 10.183-.25 2.473-.536 3.51-3.1 4.767-4.988 17.135.537 34.28 1.133 51.415 1.61 2.992-.13 2.793-4.84-.17-4.612-17.124.17-34.22 1.224-51.344 1.412-1.197-1.908-2.235-4.333-4.658-4.93-3.371-.536-6.812-.178-10.213-.257-3.402-.08 0 0 0 0zm1.306 42.137l3.96-.03c1.396-3.906 4.598-7.553 9.056-7.582 4.748-.488 8.587 3.2 10.034 7.412 1.366-.029 2.742-.07 4.119-.108-1.516-6.034-6.633-11.42-13.186-11.39-6.901-.446-12.816 5.138-13.983 11.698-1.167 6.559 0 0 0 0zm6.403-.19c4.708-.407 9.446-.794 14.093.359-1.256-3.05-4.059-5.784-7.6-5.437-3.002.338-4.877 2.822-6.493 5.078-1.615 2.256 0 0 0 0zM14.17 66.691c2.613 2.515 5.425 4.83 7.799 7.574-.33.416-.997 1.251-1.326 1.67-1.826-1.402-3.472-3.012-5.227-4.493 3.64 10.197 11.989 18.674 22.411 21.964 10.553 3.22 22.68 2.156 31.986-3.986 5.635-3.577 9.944-8.914 12.826-14.867-2.054-1.899-4.308-3.627-6.054-5.814.12-.616.38-1.858.499-2.474 2.324 1.829 4.458 3.885 6.573 5.953a77.643 77.643 0 002.184-10.545c-24.047-.03-48.094 0-72.13-.01.14 1.67.299 3.35.459 5.028zm9.145.05a62.384 62.384 0 017.97 7.504c-.39.387-1.177 1.163-1.566 1.56a63.307 63.307 0 01-8.06-7.703l.888-.764zm7.86-.506c2.872 2.425 5.844 4.83 8.188 7.791-.14.557-.419 1.66-.558 2.217-2.833-2.335-5.735-4.651-8.119-7.464.12-.636.36-1.908.489-2.544zm9.395.388c3.112 2.037 5.825 4.66 8.228 7.483-.249.517-.768 1.55-1.017 2.067-2.822-2.564-5.785-5.009-8.218-7.95.249-.399.758-1.203 1.007-1.6zm10.024.309c2.373 1.668 4.408 3.765 6.453 5.802 1.067.814 1.167 2.285.758 3.488-3.461-2.314-6.453-5.227-9.256-8.288.509-.248 1.536-.755 2.045-1.002zm8.517-.697c2.913 2.414 5.935 4.83 8.259 7.84-.16.537-.49 1.611-.649 2.147-2.782-2.365-5.665-4.68-8.039-7.463.11-.626.32-1.888.43-2.524zm9.176.447c2.853 2.265 5.585 4.74 7.96 7.514-.18.377-.54 1.122-.719 1.49-3.63-1.362-6.134-4.83-8.787-7.563l.768-.745z"/></g><path fill="red" d="M24.861 12.659c7.45.07 14.901.07 22.362 0-.01.536-.02 1.629-.03 2.166 3.63.06 7.32-.338 10.921.298 2.593.577 4.12 2.902 5.675 4.85 16.876-.299 33.741-1.4 50.627-1.312 5.006.477 4.847 8.904-.17 9.263-10.303.198-20.586-.736-30.879-.835-6.433-.209-12.866-.219-19.279-.726-1.825 2.147-3.65 4.731-6.672 5.158-3.401.398-6.832.139-10.243.158-.02 7.713.1 15.425-.08 23.136 3.211-6.707 11-11.17 18.421-9.251 6.663 1.281 11.42 7.214 12.637 13.664 3.321-.14 6.643-.129 9.974-.14.31 10.456-3.85 20.971-11.54 28.126-14.482 14.162-40.483 13.865-54.596-.696-7.271-7.135-10.991-17.312-10.901-27.409 4.587-.02 9.195-.088 13.783.209.02-15.553.04-31.107-.01-46.66-.05-15.553 0 0 0 0zm2.414 2.425c.04 14.678.02 29.357.01 44.035 1.476-.01 2.962-.03 4.458-.05-.02-14.658-.02-29.318 0-43.976-1.496 0-2.982-.01-4.468-.01-1.486 0 0 0 0 0zm6.842-.01c.02 14.688 0 29.376.01 44.064l4.199-.029c.01-14.668 0-29.347.01-44.016-1.416-.01-2.823-.019-4.219-.019-1.396 0 0 0 0 0zm6.702 44.064c1.327-.01 2.663-.01 4-.01.04-14.687 0-29.366.02-44.044-1.007-.01-3.012-.01-4.02-.02-.02 14.687-.01 29.386 0 44.074.01 14.69 0 0 0 0zm6.344-41.937c.01.615.02 1.848.02 2.464 2.254.577 6.712-1.461 6.951 1.977-2.274.657-4.657.427-6.971.477l.04 2.456c2.283.308 5.076-.706 7.021.815-1.007 2.753-4.787 1.062-7.071 1.54 0 .566.02 1.708.03 2.286 3.39-.06 6.812.257 10.183-.25 2.473-.536 3.51-3.1 4.767-4.988 17.135.537 34.28 1.133 51.415 1.61 2.992-.13 2.793-4.84-.17-4.612-17.124.17-34.22 1.224-51.344 1.412-1.197-1.908-2.235-4.333-4.658-4.93-3.371-.536-6.812-.178-10.213-.257-3.402-.08 0 0 0 0zm1.306 42.137l3.96-.03c1.396-3.906 4.598-7.553 9.056-7.582 4.748-.488 8.587 3.2 10.034 7.412 1.366-.029 2.742-.07 4.119-.108-1.516-6.034-6.633-11.42-13.186-11.39-6.901-.446-12.816 5.138-13.983 11.698-1.167 6.559 0 0 0 0zm6.403-.19c4.708-.407 9.446-.794 14.093.359-1.256-3.05-4.059-5.784-7.6-5.437-3.002.338-4.877 2.822-6.493 5.078-1.615 2.256 0 0 0 0zM14.17 66.691c2.613 2.515 5.425 4.83 7.799 7.574-.33.416-.997 1.251-1.326 1.67-1.826-1.402-3.472-3.012-5.227-4.493 3.64 10.197 11.989 18.674 22.411 21.964 10.553 3.22 22.68 2.156 31.986-3.986 5.635-3.577 9.944-8.914 12.826-14.867-2.054-1.899-4.308-3.627-6.054-5.814.12-.616.38-1.858.499-2.474 2.324 1.829 4.458 3.885 6.573 5.953a77.643 77.643 0 002.184-10.545c-24.047-.03-48.094 0-72.13-.01.14 1.67.299 3.35.459 5.028zm9.145.05a62.384 62.384 0 017.97 7.504c-.39.387-1.177 1.163-1.566 1.56a63.307 63.307 0 01-8.06-7.703l.888-.764zm7.86-.506c2.872 2.425 5.844 4.83 8.188 7.791-.14.557-.419 1.66-.558 2.217-2.833-2.335-5.735-4.651-8.119-7.464.12-.636.36-1.908.489-2.544zm9.395.388c3.112 2.037 5.825 4.66 8.228 7.483-.249.517-.768 1.55-1.017 2.067-2.822-2.564-5.785-5.009-8.218-7.95.249-.399.758-1.203 1.007-1.6zm10.024.309c2.373 1.668 4.408 3.765 6.453 5.802 1.067.814 1.167 2.285.758 3.488-3.461-2.314-6.453-5.227-9.256-8.288.509-.248 1.536-.755 2.045-1.002zm8.517-.697c2.913 2.414 5.935 4.83 8.259 7.84-.16.537-.49 1.611-.649 2.147-2.782-2.365-5.665-4.68-8.039-7.463.11-.626.32-1.888.43-2.524zm9.176.447c2.853 2.265 5.585 4.74 7.96 7.514-.18.377-.54 1.122-.719 1.49-3.63-1.362-6.134-4.83-8.787-7.563l.768-.745z"/><path fill="url(#c)" d="M24.861 12.659c7.45.07 14.901.07 22.362 0-.01.536-.02 1.629-.03 2.166 3.63.06 7.32-.338 10.921.298 2.593.577 4.12 2.902 5.675 4.85 16.876-.299 33.741-1.4 50.627-1.312 5.006.477 4.847 8.904-.17 9.263-10.303.198-20.586-.736-30.879-.835-6.433-.209-12.866-.219-19.279-.726-1.825 2.147-3.65 4.731-6.672 5.158-3.401.398-6.832.139-10.243.158-.02 7.713.1 15.425-.08 23.136 3.211-6.707 11-11.17 18.421-9.251 6.663 1.281 11.42 7.214 12.637 13.664 3.321-.14 6.643-.129 9.974-.14.31 10.456-3.85 20.971-11.54 28.126-14.482 14.162-40.483 13.865-54.596-.696-7.271-7.135-10.991-17.312-10.901-27.409 4.587-.02 9.195-.088 13.783.209.02-15.553.04-31.107-.01-46.66-.05-15.553 0 0 0 0zm2.414 2.425c.04 14.678.02 29.357.01 44.035 1.476-.01 2.962-.03 4.458-.05-.02-14.658-.02-29.318 0-43.976-1.496 0-2.982-.01-4.468-.01-1.486 0 0 0 0 0zm6.842-.01c.02 14.688 0 29.376.01 44.064l4.199-.029c.01-14.668 0-29.347.01-44.016-1.416-.01-2.823-.019-4.219-.019-1.396 0 0 0 0 0zm6.702 44.064c1.327-.01 2.663-.01 4-.01.04-14.687 0-29.366.02-44.044-1.007-.01-3.012-.01-4.02-.02-.02 14.687-.01 29.386 0 44.074.01 14.69 0 0 0 0zm6.344-41.937c.01.615.02 1.848.02 2.464 2.254.577 6.712-1.461 6.951 1.977-2.274.657-4.657.427-6.971.477l.04 2.456c2.283.308 5.076-.706 7.021.815-1.007 2.753-4.787 1.062-7.071 1.54 0 .566.02 1.708.03 2.286 3.39-.06 6.812.257 10.183-.25 2.473-.536 3.51-3.1 4.767-4.988 17.135.537 34.28 1.133 51.415 1.61 2.992-.13 2.793-4.84-.17-4.612-17.124.17-34.22 1.224-51.344 1.412-1.197-1.908-2.235-4.333-4.658-4.93-3.371-.536-6.812-.178-10.213-.257-3.402-.08 0 0 0 0zm1.306 42.137l3.96-.03c1.396-3.906 4.598-7.553 9.056-7.582 4.748-.488 8.587 3.2 10.034 7.412 1.366-.029 2.742-.07 4.119-.108-1.516-6.034-6.633-11.42-13.186-11.39-6.901-.446-12.816 5.138-13.983 11.698-1.167 6.559 0 0 0 0zm6.403-.19c4.708-.407 9.446-.794 14.093.359-1.256-3.05-4.059-5.784-7.6-5.437-3.002.338-4.877 2.822-6.493 5.078-1.615 2.256 0 0 0 0zM14.17 66.691c2.613 2.515 5.425 4.83 7.799 7.574-.33.416-.997 1.251-1.326 1.67-1.826-1.402-3.472-3.012-5.227-4.493 3.64 10.197 11.989 18.674 22.411 21.964 10.553 3.22 22.68 2.156 31.986-3.986 5.635-3.577 9.944-8.914 12.826-14.867-2.054-1.899-4.308-3.627-6.054-5.814.12-.616.38-1.858.499-2.474 2.324 1.829 4.458 3.885 6.573 5.953a77.643 77.643 0 002.184-10.545c-24.047-.03-48.094 0-72.13-.01.14 1.67.299 3.35.459 5.028zm9.145.05a62.384 62.384 0 017.97 7.504c-.39.387-1.177 1.163-1.566 1.56a63.307 63.307 0 01-8.06-7.703l.888-.764zm7.86-.506c2.872 2.425 5.844 4.83 8.188 7.791-.14.557-.419 1.66-.558 2.217-2.833-2.335-5.735-4.651-8.119-7.464.12-.636.36-1.908.489-2.544zm9.395.388c3.112 2.037 5.825 4.66 8.228 7.483-.249.517-.768 1.55-1.017 2.067-2.822-2.564-5.785-5.009-8.218-7.95.249-.399.758-1.203 1.007-1.6zm10.024.309c2.373 1.668 4.408 3.765 6.453 5.802 1.067.814 1.167 2.285.758 3.488-3.461-2.314-6.453-5.227-9.256-8.288.509-.248 1.536-.755 2.045-1.002zm8.517-.697c2.913 2.414 5.935 4.83 8.259 7.84-.16.537-.49 1.611-.649 2.147-2.782-2.365-5.665-4.68-8.039-7.463.11-.626.32-1.888.43-2.524zm9.176.447c2.853 2.265 5.585 4.74 7.96 7.514-.18.377-.54 1.122-.719 1.49-3.63-1.362-6.134-4.83-8.787-7.563l.768-.745z"/></svg>