<svg xmlns="http://www.w3.org/2000/svg" width="23" height="20"><path fill="#fff" d="M22.44 10.44l-3.85 9.11a.73.73 0 01-.672.448H5.081a.731.731 0 01-.67-.448L.558 10.44a.75.75 0 01.062-.7.73.73 0 01.61-.333h.736a4.776 4.776 0 01-.183-1.31c0-2.602 2.089-4.72 4.656-4.72.306 0 .604.031.894.088l.771-1.676A3.078 3.078 0 0110.89-.003c.448 0 .882.098 1.288.29l.423.2c.194.093.375.203.543.33a3.061 3.061 0 012.076-.82c.449 0 .882.098 1.29.29l.422.2a3.07 3.07 0 011.581 1.755c.28.781.245 1.625-.1 2.374l-.013.029a3.991 3.991 0 012.817 3.826c0 .317-.038.631-.11.936h.663a.73.73 0 01.61.333.75.75 0 01.061.7zm-2.684-1.97c0-.632-.232-1.211-.614-1.653v.47c0 .348-.278.63-.62.63a.625.625 0 01-.621-.63V6.04a2.44 2.44 0 00-1.249 0v1.25a.625.625 0 01-.62.629.625.625 0 01-.62-.63v-.47a2.542 2.542 0 00-.436 2.589h4.602a2.54 2.54 0 00.178-.936zm-14.67 2.417l2.563 4.329 2.562-4.329zm8.982-8.921a3.124 3.124 0 01.013 2.65l-2.187 4.752h1.544a4.063 4.063 0 01-.1-.898c0-2.057 1.542-3.756 3.516-3.97l.235-.51c.18-.392.198-.834.051-1.243a1.61 1.61 0 00-.826-.92l-.423-.2a1.557 1.557 0 00-.672-.15c-.44 0-.853.183-1.151.489zm-5.36 2.01a4.733 4.733 0 012.366 3.672l1.684-3.659c.18-.39.199-.833.052-1.242a1.61 1.61 0 00-.827-.92l-.423-.2a1.558 1.558 0 00-.671-.15c-.512 0-.989.246-1.289.648l1.055 1.07a.635.635 0 010 .889.612.612 0 01-.878 0l-.762-.772zm.655 5.43A3.273 3.273 0 008.27 5.442v.8c0 .348-.278.63-.62.63a.625.625 0 01-.62-.63V4.913a3.135 3.135 0 00-1.327.033v1.297c0 .347-.278.63-.62.63a.625.625 0 01-.621-.63v-.688a3.271 3.271 0 00-.945 3.852zm-7.026 1.481l3.226 7.63h11.874l3.225-7.63h-8.749l-3.638 6.148a.728.728 0 01-1.252 0l-3.639-6.148z"/></svg>