<svg xmlns="http://www.w3.org/2000/svg" width="50" height="35"><path fill="#fff" d="M24.114 9.786a1.209 1.209 0 01-.367-.86c0-.323.133-.636.367-.864.234-.226.556-.357.885-.357.331 0 .653.131.887.357.232.228.366.541.366.863 0 .32-.134.634-.366.861a1.277 1.277 0 01-1.772 0zm24.738 9.871C49.57 20.43 50 21.422 50 22.501c0 1.674-1.037 3.134-2.567 3.9v2.88c0 3.15-2.63 5.715-5.864 5.715H8.43c-3.234 0-5.864-2.564-5.864-5.716v-2.879C1.037 25.635 0 24.175 0 22.501c0-1.08.43-2.07 1.147-2.844C.431 18.884 0 17.893 0 16.814c0-1.833 1.245-3.412 3.02-4.101a1.59 1.59 0 01.043-1.817C8.04 4.072 16.24-.004 25-.004c8.76 0 16.96 4.075 21.936 10.9.406.556.4 1.276.045 1.817 1.774.689 3.019 2.268 3.019 4.1 0 1.08-.431 2.07-1.148 2.844zm-3.862 1.627H27.163l-2.501 2.435H44.99c.89 0 1.67-.569 1.67-1.218 0-.648-.78-1.217-1.67-1.217zm-22.551 0H11.213l5.613 5.465zM8.989 23.72l-2.5-2.435H5.01c-.89 0-1.67.569-1.67 1.217 0 .65.78 1.218 1.67 1.218zm36-5.687c.89 0 1.67-.57 1.67-1.218s-.78-1.217-1.67-1.217H5.01c-.89 0-1.67.57-1.67 1.217 0 .649.78 1.218 1.67 1.218zM6.115 12.344h37.771C39.507 6.64 32.491 3.25 25 3.25S10.492 6.64 6.114 12.345zm37.98 16.936v-2.31H21.321l-3.314 3.23a1.69 1.69 0 01-1.181.476 1.69 1.69 0 01-1.181-.476l-3.315-3.228H5.907v2.31c0 1.358 1.132 2.463 2.524 2.463h33.138c1.391 0 2.524-1.105 2.524-2.464zM20.434 6.073a1.212 1.212 0 01-.367-.862c0-.323.133-.636.367-.863a1.276 1.276 0 011.77 0c.234.227.368.54.368.863 0 .32-.134.634-.368.862a1.274 1.274 0 01-1.77 0zm7.358 0a1.212 1.212 0 01-.367-.862c0-.323.133-.636.367-.863a1.282 1.282 0 011.772 0c.233.227.368.54.368.863 0 .32-.135.634-.368.862a1.281 1.281 0 01-.886.358c-.33 0-.652-.13-.886-.358zM13.075 9.786a1.21 1.21 0 01-.367-.86c0-.323.134-.636.367-.864.234-.226.557-.357.886-.357.33 0 .653.131.886.357.233.228.366.541.366.863 0 .32-.133.634-.366.861a1.276 1.276 0 01-1.772 0zm22.078 0a1.205 1.205 0 01-.367-.86c0-.323.133-.636.367-.864.234-.226.556-.357.885-.357.33 0 .653.131.887.357.232.228.366.541.366.863 0 .32-.134.634-.366.861a1.277 1.277 0 01-1.772 0z"/></svg>