<svg xmlns="http://www.w3.org/2000/svg" width="35" height="49"><path fill="#fff" d="M34.98 10.525l-5.732 37.009c-.13.84-.86 1.463-1.717 1.463H10.335a1.735 1.735 0 01-1.717-1.463L2.886 10.525a1.718 1.718 0 01.399-1.386 1.74 1.74 0 011.318-.602h7.346l-.365-5.09H1.737C.777 3.447 0 2.674 0 1.722 0 .77.778-.004 1.737-.004H13.2c.911 0 1.667.7 1.732 1.604l.5 6.937h17.83c.507 0 .989.22 1.319.602.33.382.475.888.398 1.386zm-19.3 1.464l.98 13.63h12.467l2.112-13.63zm-9.053 0l2.111 13.63h4.44l-.98-13.63zM28.593 29.07H16.91l.89 12.385a1.729 1.729 0 01-1.734 1.848 1.732 1.732 0 01-1.73-1.602l-.909-12.63H9.273l2.552 16.475h14.216z"/></svg>