<svg xmlns="http://www.w3.org/2000/svg" width="107" height="124"><defs><linearGradient id="c" x1="54.24" x2="53.25" y1="111.5" y2="11.5" gradientUnits="userSpaceOnUse"><stop offset="0" stop-color="#17a56a"/><stop offset="1" stop-color="#75d007"/></linearGradient><filter id="a" width="136.2" height="151.2" x="-14.1" y="-14.1" filterUnits="userSpaceOnUse"><feOffset in="SourceGraphic" result="FeOffset1317Out"/><feGaussianBlur in="FeOffset1317Out" result="FeGaussianBlur1318Out" stdDeviation="5.12 5.12"/></filter><mask id="b" width="2.05" height="2.05" x="-1.03" y="-1.02"><path fill="#fff" d="M8.7 8.7h90.6v105.6H8.7z"/><path d="M32.481 22.187c3.62-5.177 8.988-9.31 15.32-10.299 8.923-1.784 18.233 2.756 23.14 10.299 4.788-.159 9.778.665 13.647 3.689 6.884 4.888 9.558 14.715 6.204 22.47-2.142 5.37-6.939 9.235-12.315 11.037-.018 9.503-.01 19.015-.01 28.526-17.8-.009-35.601-.009-53.402 0 .092-9.465.009-18.93.046-28.396-4.917-1.85-9.595-5.01-11.874-9.937-4.053-7.84-1.728-18.432 5.477-23.59 3.879-3.115 8.933-3.929 13.767-3.8 4.834.13 0 0 0 0zm1.59 22.037c-.496.295-1.48.887-1.976 1.192-2.61-4.954-3.207-10.621-2.693-16.13-5.826.925-10.495 5.832-10.752 11.841-.533-.019-1.617-.037-2.15-.055.275-3.966 1.681-8.006 4.87-10.557 2.49-2.33 5.891-3.022 9.126-3.577.211-.657.616-1.97.818-2.634-3.391.239-6.911.693-9.824 2.597-6.314 3.761-9.65 12.035-7.233 19.098 2.04 6.85 8.73 11.582 15.761 11.795-.01.526-.018 1.58-.027 2.107-.69-.064-2.068-.185-2.758-.25.01 8.662.01 17.324 0 25.975a9530.45 9530.45 0 0148.937 0v-5.971c-15.283.037-30.566 0-45.849.018v-2.366c3.162 0 6.332 0 9.494-.01-.019-5.407 0-10.805-.019-16.213.552 0 1.664-.01 2.215-.018-.018 5.426 0 10.843 0 16.27a432.93 432.93 0 018.528-.02c.01-5.38.019-10.751 0-16.13.57-.037 1.728-.102 2.307-.138 0 5.426 0 10.85.01 16.288 2.848-.038 5.697-.038 8.546-.01.01-5.417.018-10.843 0-16.26.79.036 1.59.083 2.38.13-.036 5.379-.027 10.75-.018 16.13 4.135-.028 8.27-.028 12.406 0 .01-5.888 0-11.767.01-17.656-.69.055-2.05.157-2.73.213l-.037-2.072c2.923-.378 5.937-.895 8.473-2.505 5.643-3.327 8.952-10.213 7.867-16.73-1.001-7.072-7.076-13.2-14.207-13.875-1.83-.306-3.879 0-5.414-1.258-.23.084-.707.269-.946.352-3.63-5.657-9.824-9.845-16.662-9.9-8.767-.6-17.258 5.49-19.942 13.838-1.893 5.407-1.03 11.425 1.489 16.491zM17.446 98.661c.222-.303.462-.589.717-.856 1.964-2.062 4.854-3.077 7.692-2.963 23.462 0 46.924.019 70.386-.01-11.322 10.484-26.605 16.206-41.915 16.613-3.005.064-6.01.018-9.007.055-.119-3.263.874-7.007-1.645-9.604a28.22 28.22 0 01-18.085 1.977c-.68 1-1.342 2.006-2.013 3.024a486.819 486.819 0 00-8.243 0c.128-2.838.202-5.954 2.113-8.236zm5.983-1.268c-3.52.574-5.266 4.04-5.992 7.21 1.498 0 3.005 0 4.512-.008 1.296-1.22 2.454-3.374 4.559-2.802 4.953.713 10.063.603 14.759-1.33l.055-3.263c-5.964.147-11.947-.268-17.893.193-5.946.463 0 0 0 0zm-5.266.412c.204-.245.148-.177 0 0zm25.585 1.761c1.37 1.119 3.364 2.025 3.658 3.993.266 1.895.174 3.828.22 5.76 14.888.516 30.015-3.273 42.22-12.036-15.403-.166-30.815 0-46.217-.093a96.4 96.4 0 00.12 2.376z"/></mask></defs><g filter="url(#a)"><path fill="none" stroke="red" stroke-opacity=".2" stroke-width="4.6" d="M32.481 22.187c3.62-5.177 8.988-9.31 15.32-10.299 8.923-1.784 18.233 2.756 23.14 10.299 4.788-.159 9.778.665 13.647 3.689 6.884 4.888 9.558 14.715 6.204 22.47-2.142 5.37-6.939 9.235-12.315 11.037-.018 9.503-.01 19.015-.01 28.526-17.8-.009-35.601-.009-53.402 0 .092-9.465.009-18.93.046-28.396-4.917-1.85-9.595-5.01-11.874-9.937-4.053-7.84-1.728-18.432 5.477-23.59 3.879-3.115 8.933-3.929 13.767-3.8 4.834.13 0 0 0 0zm1.59 22.037c-.496.295-1.48.887-1.976 1.192-2.61-4.954-3.207-10.621-2.693-16.13-5.826.925-10.495 5.832-10.752 11.841-.533-.019-1.617-.037-2.15-.055.275-3.966 1.681-8.006 4.87-10.557 2.49-2.33 5.891-3.022 9.126-3.577.211-.657.616-1.97.818-2.634-3.391.239-6.911.693-9.824 2.597-6.314 3.761-9.65 12.035-7.233 19.098 2.04 6.85 8.73 11.582 15.761 11.795-.01.526-.018 1.58-.027 2.107-.69-.064-2.068-.185-2.758-.25.01 8.662.01 17.324 0 25.975a9530.45 9530.45 0 0148.937 0v-5.971c-15.283.037-30.566 0-45.849.018v-2.366c3.162 0 6.332 0 9.494-.01-.019-5.407 0-10.805-.019-16.213.552 0 1.664-.01 2.215-.018-.018 5.426 0 10.843 0 16.27a432.93 432.93 0 018.528-.02c.01-5.38.019-10.751 0-16.13.57-.037 1.728-.102 2.307-.138 0 5.426 0 10.85.01 16.288 2.848-.038 5.697-.038 8.546-.01.01-5.417.018-10.843 0-16.26.79.036 1.59.083 2.38.13-.036 5.379-.027 10.75-.018 16.13 4.135-.028 8.27-.028 12.406 0 .01-5.888 0-11.767.01-17.656-.69.055-2.05.157-2.73.213l-.037-2.072c2.923-.378 5.937-.895 8.473-2.505 5.643-3.327 8.952-10.213 7.867-16.73-1.001-7.072-7.076-13.2-14.207-13.875-1.83-.306-3.879 0-5.414-1.258-.23.084-.707.269-.946.352-3.63-5.657-9.824-9.845-16.662-9.9-8.767-.6-17.258 5.49-19.942 13.838-1.893 5.407-1.03 11.425 1.489 16.491zM17.446 98.661c.222-.303.462-.589.717-.856 1.964-2.062 4.854-3.077 7.692-2.963 23.462 0 46.924.019 70.386-.01-11.322 10.484-26.605 16.206-41.915 16.613-3.005.064-6.01.018-9.007.055-.119-3.263.874-7.007-1.645-9.604a28.22 28.22 0 01-18.085 1.977c-.68 1-1.342 2.006-2.013 3.024a486.819 486.819 0 00-8.243 0c.128-2.838.202-5.954 2.113-8.236zm5.983-1.268c-3.52.574-5.266 4.04-5.992 7.21 1.498 0 3.005 0 4.512-.008 1.296-1.22 2.454-3.374 4.559-2.802 4.953.713 10.063.603 14.759-1.33l.055-3.263c-5.964.147-11.947-.268-17.893.193-5.946.463 0 0 0 0zm-5.266.412c.204-.245.148-.177 0 0zm25.585 1.761c1.37 1.119 3.364 2.025 3.658 3.993.266 1.895.174 3.828.22 5.76 14.888.516 30.015-3.273 42.22-12.036-15.403-.166-30.815 0-46.217-.093a96.4 96.4 0 00.12 2.376z" mask="url(&quot;#b&quot;)"/><path fill="red" fill-opacity=".2" d="M32.481 22.187c3.62-5.177 8.988-9.31 15.32-10.299 8.923-1.784 18.233 2.756 23.14 10.299 4.788-.159 9.778.665 13.647 3.689 6.884 4.888 9.558 14.715 6.204 22.47-2.142 5.37-6.939 9.235-12.315 11.037-.018 9.503-.01 19.015-.01 28.526-17.8-.009-35.601-.009-53.402 0 .092-9.465.009-18.93.046-28.396-4.917-1.85-9.595-5.01-11.874-9.937-4.053-7.84-1.728-18.432 5.477-23.59 3.879-3.115 8.933-3.929 13.767-3.8 4.834.13 0 0 0 0zm1.59 22.037c-.496.295-1.48.887-1.976 1.192-2.61-4.954-3.207-10.621-2.693-16.13-5.826.925-10.495 5.832-10.752 11.841-.533-.019-1.617-.037-2.15-.055.275-3.966 1.681-8.006 4.87-10.557 2.49-2.33 5.891-3.022 9.126-3.577.211-.657.616-1.97.818-2.634-3.391.239-6.911.693-9.824 2.597-6.314 3.761-9.65 12.035-7.233 19.098 2.04 6.85 8.73 11.582 15.761 11.795-.01.526-.018 1.58-.027 2.107-.69-.064-2.068-.185-2.758-.25.01 8.662.01 17.324 0 25.975a9530.45 9530.45 0 0148.937 0v-5.971c-15.283.037-30.566 0-45.849.018v-2.366c3.162 0 6.332 0 9.494-.01-.019-5.407 0-10.805-.019-16.213.552 0 1.664-.01 2.215-.018-.018 5.426 0 10.843 0 16.27a432.93 432.93 0 018.528-.02c.01-5.38.019-10.751 0-16.13.57-.037 1.728-.102 2.307-.138 0 5.426 0 10.85.01 16.288 2.848-.038 5.697-.038 8.546-.01.01-5.417.018-10.843 0-16.26.79.036 1.59.083 2.38.13-.036 5.379-.027 10.75-.018 16.13 4.135-.028 8.27-.028 12.406 0 .01-5.888 0-11.767.01-17.656-.69.055-2.05.157-2.73.213l-.037-2.072c2.923-.378 5.937-.895 8.473-2.505 5.643-3.327 8.952-10.213 7.867-16.73-1.001-7.072-7.076-13.2-14.207-13.875-1.83-.306-3.879 0-5.414-1.258-.23.084-.707.269-.946.352-3.63-5.657-9.824-9.845-16.662-9.9-8.767-.6-17.258 5.49-19.942 13.838-1.893 5.407-1.03 11.425 1.489 16.491zM17.446 98.661c.222-.303.462-.589.717-.856 1.964-2.062 4.854-3.077 7.692-2.963 23.462 0 46.924.019 70.386-.01-11.322 10.484-26.605 16.206-41.915 16.613-3.005.064-6.01.018-9.007.055-.119-3.263.874-7.007-1.645-9.604a28.22 28.22 0 01-18.085 1.977c-.68 1-1.342 2.006-2.013 3.024a486.819 486.819 0 00-8.243 0c.128-2.838.202-5.954 2.113-8.236zm5.983-1.268c-3.52.574-5.266 4.04-5.992 7.21 1.498 0 3.005 0 4.512-.008 1.296-1.22 2.454-3.374 4.559-2.802 4.953.713 10.063.603 14.759-1.33l.055-3.263c-5.964.147-11.947-.268-17.893.193-5.946.463 0 0 0 0zm-5.266.412c.204-.245.148-.177 0 0zm25.585 1.761c1.37 1.119 3.364 2.025 3.658 3.993.266 1.895.174 3.828.22 5.76 14.888.516 30.015-3.273 42.22-12.036-15.403-.166-30.815 0-46.217-.093a96.4 96.4 0 00.12 2.376z"/></g><g filter="url(#a)"><path fill="none" stroke="red" stroke-opacity=".2" stroke-width="4.6" d="M32.481 22.187c3.62-5.177 8.988-9.31 15.32-10.299 8.923-1.784 18.233 2.756 23.14 10.299 4.788-.159 9.778.665 13.647 3.689 6.884 4.888 9.558 14.715 6.204 22.47-2.142 5.37-6.939 9.235-12.315 11.037-.018 9.503-.01 19.015-.01 28.526-17.8-.009-35.601-.009-53.402 0 .092-9.465.009-18.93.046-28.396-4.917-1.85-9.595-5.01-11.874-9.937-4.053-7.84-1.728-18.432 5.477-23.59 3.879-3.115 8.933-3.929 13.767-3.8 4.834.13 0 0 0 0zm1.59 22.037c-.496.295-1.48.887-1.976 1.192-2.61-4.954-3.207-10.621-2.693-16.13-5.826.925-10.495 5.832-10.752 11.841-.533-.019-1.617-.037-2.15-.055.275-3.966 1.681-8.006 4.87-10.557 2.49-2.33 5.891-3.022 9.126-3.577.211-.657.616-1.97.818-2.634-3.391.239-6.911.693-9.824 2.597-6.314 3.761-9.65 12.035-7.233 19.098 2.04 6.85 8.73 11.582 15.761 11.795-.01.526-.018 1.58-.027 2.107-.69-.064-2.068-.185-2.758-.25.01 8.662.01 17.324 0 25.975a9530.45 9530.45 0 0148.937 0v-5.971c-15.283.037-30.566 0-45.849.018v-2.366c3.162 0 6.332 0 9.494-.01-.019-5.407 0-10.805-.019-16.213.552 0 1.664-.01 2.215-.018-.018 5.426 0 10.843 0 16.27a432.93 432.93 0 018.528-.02c.01-5.38.019-10.751 0-16.13.57-.037 1.728-.102 2.307-.138 0 5.426 0 10.85.01 16.288 2.848-.038 5.697-.038 8.546-.01.01-5.417.018-10.843 0-16.26.79.036 1.59.083 2.38.13-.036 5.379-.027 10.75-.018 16.13 4.135-.028 8.27-.028 12.406 0 .01-5.888 0-11.767.01-17.656-.69.055-2.05.157-2.73.213l-.037-2.072c2.923-.378 5.937-.895 8.473-2.505 5.643-3.327 8.952-10.213 7.867-16.73-1.001-7.072-7.076-13.2-14.207-13.875-1.83-.306-3.879 0-5.414-1.258-.23.084-.707.269-.946.352-3.63-5.657-9.824-9.845-16.662-9.9-8.767-.6-17.258 5.49-19.942 13.838-1.893 5.407-1.03 11.425 1.489 16.491zM17.446 98.661c.222-.303.462-.589.717-.856 1.964-2.062 4.854-3.077 7.692-2.963 23.462 0 46.924.019 70.386-.01-11.322 10.484-26.605 16.206-41.915 16.613-3.005.064-6.01.018-9.007.055-.119-3.263.874-7.007-1.645-9.604a28.22 28.22 0 01-18.085 1.977c-.68 1-1.342 2.006-2.013 3.024a486.819 486.819 0 00-8.243 0c.128-2.838.202-5.954 2.113-8.236zm5.983-1.268c-3.52.574-5.266 4.04-5.992 7.21 1.498 0 3.005 0 4.512-.008 1.296-1.22 2.454-3.374 4.559-2.802 4.953.713 10.063.603 14.759-1.33l.055-3.263c-5.964.147-11.947-.268-17.893.193-5.946.463 0 0 0 0zm-5.266.412c.204-.245.148-.177 0 0zm25.585 1.761c1.37 1.119 3.364 2.025 3.658 3.993.266 1.895.174 3.828.22 5.76 14.888.516 30.015-3.273 42.22-12.036-15.403-.166-30.815 0-46.217-.093a96.4 96.4 0 00.12 2.376z" mask="url(&quot;#b&quot;)"/><path fill="red" fill-opacity=".2" d="M32.481 22.187c3.62-5.177 8.988-9.31 15.32-10.299 8.923-1.784 18.233 2.756 23.14 10.299 4.788-.159 9.778.665 13.647 3.689 6.884 4.888 9.558 14.715 6.204 22.47-2.142 5.37-6.939 9.235-12.315 11.037-.018 9.503-.01 19.015-.01 28.526-17.8-.009-35.601-.009-53.402 0 .092-9.465.009-18.93.046-28.396-4.917-1.85-9.595-5.01-11.874-9.937-4.053-7.84-1.728-18.432 5.477-23.59 3.879-3.115 8.933-3.929 13.767-3.8 4.834.13 0 0 0 0zm1.59 22.037c-.496.295-1.48.887-1.976 1.192-2.61-4.954-3.207-10.621-2.693-16.13-5.826.925-10.495 5.832-10.752 11.841-.533-.019-1.617-.037-2.15-.055.275-3.966 1.681-8.006 4.87-10.557 2.49-2.33 5.891-3.022 9.126-3.577.211-.657.616-1.97.818-2.634-3.391.239-6.911.693-9.824 2.597-6.314 3.761-9.65 12.035-7.233 19.098 2.04 6.85 8.73 11.582 15.761 11.795-.01.526-.018 1.58-.027 2.107-.69-.064-2.068-.185-2.758-.25.01 8.662.01 17.324 0 25.975a9530.45 9530.45 0 0148.937 0v-5.971c-15.283.037-30.566 0-45.849.018v-2.366c3.162 0 6.332 0 9.494-.01-.019-5.407 0-10.805-.019-16.213.552 0 1.664-.01 2.215-.018-.018 5.426 0 10.843 0 16.27a432.93 432.93 0 018.528-.02c.01-5.38.019-10.751 0-16.13.57-.037 1.728-.102 2.307-.138 0 5.426 0 10.85.01 16.288 2.848-.038 5.697-.038 8.546-.01.01-5.417.018-10.843 0-16.26.79.036 1.59.083 2.38.13-.036 5.379-.027 10.75-.018 16.13 4.135-.028 8.27-.028 12.406 0 .01-5.888 0-11.767.01-17.656-.69.055-2.05.157-2.73.213l-.037-2.072c2.923-.378 5.937-.895 8.473-2.505 5.643-3.327 8.952-10.213 7.867-16.73-1.001-7.072-7.076-13.2-14.207-13.875-1.83-.306-3.879 0-5.414-1.258-.23.084-.707.269-.946.352-3.63-5.657-9.824-9.845-16.662-9.9-8.767-.6-17.258 5.49-19.942 13.838-1.893 5.407-1.03 11.425 1.489 16.491zM17.446 98.661c.222-.303.462-.589.717-.856 1.964-2.062 4.854-3.077 7.692-2.963 23.462 0 46.924.019 70.386-.01-11.322 10.484-26.605 16.206-41.915 16.613-3.005.064-6.01.018-9.007.055-.119-3.263.874-7.007-1.645-9.604a28.22 28.22 0 01-18.085 1.977c-.68 1-1.342 2.006-2.013 3.024a486.819 486.819 0 00-8.243 0c.128-2.838.202-5.954 2.113-8.236zm5.983-1.268c-3.52.574-5.266 4.04-5.992 7.21 1.498 0 3.005 0 4.512-.008 1.296-1.22 2.454-3.374 4.559-2.802 4.953.713 10.063.603 14.759-1.33l.055-3.263c-5.964.147-11.947-.268-17.893.193-5.946.463 0 0 0 0zm-5.266.412c.204-.245.148-.177 0 0zm25.585 1.761c1.37 1.119 3.364 2.025 3.658 3.993.266 1.895.174 3.828.22 5.76 14.888.516 30.015-3.273 42.22-12.036-15.403-.166-30.815 0-46.217-.093a96.4 96.4 0 00.12 2.376z"/></g><path fill="red" d="M32.481 22.187c3.62-5.177 8.988-9.31 15.32-10.299 8.923-1.784 18.233 2.756 23.14 10.299 4.788-.159 9.778.665 13.647 3.689 6.884 4.888 9.558 14.715 6.204 22.47-2.142 5.37-6.939 9.235-12.315 11.037-.018 9.503-.01 19.015-.01 28.526-17.8-.009-35.601-.009-53.402 0 .092-9.465.009-18.93.046-28.396-4.917-1.85-9.595-5.01-11.874-9.937-4.053-7.84-1.728-18.432 5.477-23.59 3.879-3.115 8.933-3.929 13.767-3.8 4.834.13 0 0 0 0zm1.59 22.037c-.496.295-1.48.887-1.976 1.192-2.61-4.954-3.207-10.621-2.693-16.13-5.826.925-10.495 5.832-10.752 11.841-.533-.019-1.617-.037-2.15-.055.275-3.966 1.681-8.006 4.87-10.557 2.49-2.33 5.891-3.022 9.126-3.577.211-.657.616-1.97.818-2.634-3.391.239-6.911.693-9.824 2.597-6.314 3.761-9.65 12.035-7.233 19.098 2.04 6.85 8.73 11.582 15.761 11.795-.01.526-.018 1.58-.027 2.107-.69-.064-2.068-.185-2.758-.25.01 8.662.01 17.324 0 25.975a9530.45 9530.45 0 0148.937 0v-5.971c-15.283.037-30.566 0-45.849.018v-2.366c3.162 0 6.332 0 9.494-.01-.019-5.407 0-10.805-.019-16.213.552 0 1.664-.01 2.215-.018-.018 5.426 0 10.843 0 16.27a432.93 432.93 0 018.528-.02c.01-5.38.019-10.751 0-16.13.57-.037 1.728-.102 2.307-.138 0 5.426 0 10.85.01 16.288 2.848-.038 5.697-.038 8.546-.01.01-5.417.018-10.843 0-16.26.79.036 1.59.083 2.38.13-.036 5.379-.027 10.75-.018 16.13 4.135-.028 8.27-.028 12.406 0 .01-5.888 0-11.767.01-17.656-.69.055-2.05.157-2.73.213l-.037-2.072c2.923-.378 5.937-.895 8.473-2.505 5.643-3.327 8.952-10.213 7.867-16.73-1.001-7.072-7.076-13.2-14.207-13.875-1.83-.306-3.879 0-5.414-1.258-.23.084-.707.269-.946.352-3.63-5.657-9.824-9.845-16.662-9.9-8.767-.6-17.258 5.49-19.942 13.838-1.893 5.407-1.03 11.425 1.489 16.491zM17.446 98.661c.222-.303.462-.589.717-.856 1.964-2.062 4.854-3.077 7.692-2.963 23.462 0 46.924.019 70.386-.01-11.322 10.484-26.605 16.206-41.915 16.613-3.005.064-6.01.018-9.007.055-.119-3.263.874-7.007-1.645-9.604a28.22 28.22 0 01-18.085 1.977c-.68 1-1.342 2.006-2.013 3.024a486.819 486.819 0 00-8.243 0c.128-2.838.202-5.954 2.113-8.236zm5.983-1.268c-3.52.574-5.266 4.04-5.992 7.21 1.498 0 3.005 0 4.512-.008 1.296-1.22 2.454-3.374 4.559-2.802 4.953.713 10.063.603 14.759-1.33l.055-3.263c-5.964.147-11.947-.268-17.893.193-5.946.463 0 0 0 0zm-5.266.412c.204-.245.148-.177 0 0zm25.585 1.761c1.37 1.119 3.364 2.025 3.658 3.993.266 1.895.174 3.828.22 5.76 14.888.516 30.015-3.273 42.22-12.036-15.403-.166-30.815 0-46.217-.093a96.4 96.4 0 00.12 2.376z"/><path fill="url(#c)" d="M32.481 22.187c3.62-5.177 8.988-9.31 15.32-10.299 8.923-1.784 18.233 2.756 23.14 10.299 4.788-.159 9.778.665 13.647 3.689 6.884 4.888 9.558 14.715 6.204 22.47-2.142 5.37-6.939 9.235-12.315 11.037-.018 9.503-.01 19.015-.01 28.526-17.8-.009-35.601-.009-53.402 0 .092-9.465.009-18.93.046-28.396-4.917-1.85-9.595-5.01-11.874-9.937-4.053-7.84-1.728-18.432 5.477-23.59 3.879-3.115 8.933-3.929 13.767-3.8 4.834.13 0 0 0 0zm1.59 22.037c-.496.295-1.48.887-1.976 1.192-2.61-4.954-3.207-10.621-2.693-16.13-5.826.925-10.495 5.832-10.752 11.841-.533-.019-1.617-.037-2.15-.055.275-3.966 1.681-8.006 4.87-10.557 2.49-2.33 5.891-3.022 9.126-3.577.211-.657.616-1.97.818-2.634-3.391.239-6.911.693-9.824 2.597-6.314 3.761-9.65 12.035-7.233 19.098 2.04 6.85 8.73 11.582 15.761 11.795-.01.526-.018 1.58-.027 2.107-.69-.064-2.068-.185-2.758-.25.01 8.662.01 17.324 0 25.975a9530.45 9530.45 0 0148.937 0v-5.971c-15.283.037-30.566 0-45.849.018v-2.366c3.162 0 6.332 0 9.494-.01-.019-5.407 0-10.805-.019-16.213.552 0 1.664-.01 2.215-.018-.018 5.426 0 10.843 0 16.27a432.93 432.93 0 018.528-.02c.01-5.38.019-10.751 0-16.13.57-.037 1.728-.102 2.307-.138 0 5.426 0 10.85.01 16.288 2.848-.038 5.697-.038 8.546-.01.01-5.417.018-10.843 0-16.26.79.036 1.59.083 2.38.13-.036 5.379-.027 10.75-.018 16.13 4.135-.028 8.27-.028 12.406 0 .01-5.888 0-11.767.01-17.656-.69.055-2.05.157-2.73.213l-.037-2.072c2.923-.378 5.937-.895 8.473-2.505 5.643-3.327 8.952-10.213 7.867-16.73-1.001-7.072-7.076-13.2-14.207-13.875-1.83-.306-3.879 0-5.414-1.258-.23.084-.707.269-.946.352-3.63-5.657-9.824-9.845-16.662-9.9-8.767-.6-17.258 5.49-19.942 13.838-1.893 5.407-1.03 11.425 1.489 16.491zM17.446 98.661c.222-.303.462-.589.717-.856 1.964-2.062 4.854-3.077 7.692-2.963 23.462 0 46.924.019 70.386-.01-11.322 10.484-26.605 16.206-41.915 16.613-3.005.064-6.01.018-9.007.055-.119-3.263.874-7.007-1.645-9.604a28.22 28.22 0 01-18.085 1.977c-.68 1-1.342 2.006-2.013 3.024a486.819 486.819 0 00-8.243 0c.128-2.838.202-5.954 2.113-8.236zm5.983-1.268c-3.52.574-5.266 4.04-5.992 7.21 1.498 0 3.005 0 4.512-.008 1.296-1.22 2.454-3.374 4.559-2.802 4.953.713 10.063.603 14.759-1.33l.055-3.263c-5.964.147-11.947-.268-17.893.193-5.946.463 0 0 0 0zm-5.266.412c.204-.245.148-.177 0 0zm25.585 1.761c1.37 1.119 3.364 2.025 3.658 3.993.266 1.895.174 3.828.22 5.76 14.888.516 30.015-3.273 42.22-12.036-15.403-.166-30.815 0-46.217-.093a96.4 96.4 0 00.12 2.376z"/></svg>