<svg xmlns="http://www.w3.org/2000/svg" width="145" height="108"><defs><linearGradient id="c" x1="73.09" x2="73.05" y1="96.5" y2="11.48" gradientUnits="userSpaceOnUse"><stop offset="0" stop-color="#17a56a"/><stop offset="1" stop-color="#75d007"/></linearGradient><filter id="a" width="173.2" height="136.2" x="-13.1" y="-14.1" filterUnits="userSpaceOnUse"><feOffset in="SourceGraphic" result="FeOffset1359Out"/><feGaussianBlur in="FeOffset1359Out" result="FeGaussianBlur1360Out" stdDeviation="5.12 5.12"/></filter><mask id="b" width="2.04" height="2.05" x="-1.02" y="-1.03"><path fill="#fff" d="M9.7 8.7h127.6v90.6H9.7z"/><path d="M96.62 20.876a4.57 4.57 0 01-.684-.645c-.219-.207-.156-.147 0 0-2.624-3.046-.51-8.844 3.873-8.74 4.258-.221 6.097 4.371 5.248 7.974 1.139 1.07 2.288 2.15 3.428 3.242l-.06 4.463c.56.02 1.669.06 2.229.09.11-1.601.21-3.192.31-4.783-2.29-1.49-4.828-3.583-4.028-6.675.51-4.663 7.556-5.854 9.655-1.71 2.109 3.191-.37 6.704-3.269 8.225-.02 1.57-.04 3.151-.05 4.732 1.48.361 3.519-.39 4.698.761.34 3.222.14 6.474.09 9.706-1.28 1.49-3.378 2.912-2.918 5.183 1.089 7.355 2.648 14.64 4.058 21.944 8.945.51 16.311 9.317 14.652 18.252-1.11 9.085-11.164 15.62-19.9 12.819-7.936-2.043-13.233-10.928-11.064-18.873.91-4.672 4.388-8.265 8.306-10.676-.05-.56-.16-1.662-.21-2.223-3.659.721-7.357 2.622-8.906 6.215-1.72 4.322-2.808 8.875-4.318 13.279-9.445.078-18.89.039-28.326.019-1.13 3.492-2.638 7.065-5.627 9.396-5.727 4.983-15.073 4.862-20.62-.35-2.868-2.382-4.278-5.924-5.297-9.407-6.037-4.542-3.399-13.097-.34-18.66a560.871 560.871 0 00-4.108-7.186c-5.217-.07-10.425.13-15.632-.06-2.929.071-5.647-2.45-5.657-5.403-.16-7.324-.09-14.66-.03-21.984-.13-3.612 2.918-6.874 6.496-7.115 7.387-.27 14.783.02 22.18-.12 3.108.05 6.756-.43 9.185 1.993 1.819 1.52 2.469 3.932 2.379 6.233-.01 7.976.04 15.95-.07 23.925 1.19-2.932 3.078-6.204 6.587-6.504 4.927-.28 9.885-.28 14.812-.01 3.608.4 4.958 4.713 4.128 7.815-1.5 5.113-4.588 9.636-5.987 14.789.18.37.53 1.091.71 1.451 10.315.74 20.47-5.983 24.258-15.55 2.089-5.302 4.458-10.507 6.307-15.91.23-3.753-.36-7.495-.7-11.226-1.31.009-2.609.02-3.918.04-.75.7-1.02 2.46-2.369 2.08-.34-.52-1.04-1.56-1.39-2.07-2.918-.021-5.836.06-8.735-.221.01-.51.04-1.542.06-2.052 2.919-.31 5.857-.17 8.796-.17.46-.65 1.389-1.94 1.859-2.591.39.66 1.19 1.98 1.589 2.641 2.579-.05 5.167-.06 7.756-.06-.01-.83-.03-2.49-.03-3.331-.94-.841-1.869-1.692-2.789-2.522-2.178.56-4.757 1.31-6.616-.44zm.6-4.003c-.04.463.022.848.162 1.168.004.027.004.024 0 0 .646 1.47 2.947 1.543 4.466 1.314.26-.64.78-1.912 1.04-2.543-.26-.64-.77-1.911-1.02-2.55-1.909-.361-5.017-.06-4.648 2.61zm12.094-.04c-.25 2.552 2.72 2.801 4.558 2.571.3-.65.88-1.94 1.18-2.592-.29-.649-.87-1.95-1.16-2.61-1.859-.28-4.907.05-4.578 2.63.33 2.582 0 0 0 0zm-94.812 13.93c-.01 6.723-.07 13.448.03 20.171-.16 1.851 1.329 3.823 3.298 3.684 10.704.169 21.42.029 32.134.05-.05-7.986.06-15.96-.02-23.936.22-2.873-2.059-5.864-5.098-5.554-8.365-.06-16.721-.05-25.087-.01-3.069-.36-5.607 2.622-5.257 5.594.35 2.972 0 0 0 0zm90.495-1.17c.23 3.5.47 7.002.63 10.514 2.338-.01 4.677-.01 7.026-.01.94-1.28 1.899-2.54 2.888-3.771.01-2.251.01-4.504.03-6.745-3.518.02-7.046.02-10.574.011-3.529-.011 0 0 0 0zM98.65 58.768C94.262 68.596 83.597 75.42 72.793 74.68c-2.28-.11-4.028-2.712-3.379-4.874 1.42-4.322 3.608-8.345 5.358-12.547-6.997.04-13.983-.141-20.97.06-9.735.54-17.631 9.906-17.032 19.553.12 2.48 2.43 4.382 4.878 4.163 18.111.07 36.232-.012 54.343.028.12-.55.37-1.65.49-2.202-10.005-.309-20.02.061-30.035-.209l.72-2.052c10.034-.49 20.11-.11 30.154-.18 1.39-4.213 2.22-9.135 6.077-11.907 3.509-2.982 8.306-3.102 12.674-3.032-1.33-6.324-2.389-12.697-3.618-19.042-2.389.02-4.768.02-7.147.01-2.279 5.414-4.327 10.927-6.656 16.32-2.33 5.394 0 0 0 0zm-44.128-4.313c7.096.43 14.233.24 21.34.141-.54-1.4-.71-3.182-2.2-3.943-4.598-.38-9.235-.24-13.843-.1-2.439-.02-3.768 2.412-5.297 3.902-1.53 1.492 0 0 0 0zM36.31 57.22c.96 1.631 1.909 3.271 2.838 4.932a58.305 58.305 0 016.137-4.943 390 390 0 01-8.975.011c-2.989-.03 0 0 0 0zm77.001 6.954c1.25 5.053 1.95 10.216 3.219 15.27-.02 1.88 2.679 2.822 2.698.34-.434-4.456-1.457-8.826-2.33-13.212-.14-.023-.121-.02 0 0a134.4 134.4 0 01-.488-2.568c-1.04.05-2.069.11-3.099.17-1.029.06 0 0 0 0zm6.127 2.823c.21.77.62 2.31.83 3.08 4.298 1.362 8.326 4.924 8.286 9.757.73 5.984-4.838 11.627-10.835 10.937-5.647.13-10.455-5.394-9.785-10.967-.13-3.332 2.18-5.914 4.338-8.125-.11-.77-.32-2.292-.43-3.062-3.668 2.591-6.826 6.473-6.846 11.176-.64 7.496 6.207 14.58 13.743 13.95 7.546.06 13.843-7.505 12.664-14.92-.59-6.214-6.028-10.837-11.965-11.826zm1.45 5.693c.23 2.691.86 5.372.69 8.094-.56 3.082-5.248 3.802-6.847 1.152-1.07-2.422-1.29-5.114-1.92-7.656-2.928 3.503-3.617 9.126.31 12.207 4.578 4.504 12.984.631 13.054-5.622.37-3.693-2.489-6.364-5.287-8.175-2.799-1.813 0 0 0 0zm-80.54 10.816c1.739 4.713 5.187 9.166 10.365 10.196 7.146 1.982 14.252-3.392 16.251-10.156-1.08-.03-3.228-.08-4.307-.1-1.81 3.272-4.778 6.564-8.886 6.245-4.138.37-7.246-2.833-9.006-6.215-1.469 0-2.948.01-4.417.03-1.47.02 0 0 0 0zm13.423 3.823c2.699.13 4.518-2.152 6.337-3.753-4.278-.16-8.566-.15-12.844-.02 1.86 1.641 3.718 4.013 6.507 3.773zM29.124 29.251c2.11-.06 4.218-.08 6.327-.03a40.716 40.716 0 00-1.979 3.602c4.358.38 8.516 2.782 10.745 6.595 1.12 2.23 1.949 4.613 3.088 6.854l.24 1.831c-10.355-.06-20.72.07-31.074-.08 2.318-3.623 2.788-8.396 6.166-11.357 2.25-2.332 5.378-3.493 8.546-3.833a30.242 30.242 0 00-2.059-3.582c-.77-1.141 0 0 0 0zm-3.188 9.716c1.779-1.43 4.058-1.901 6.177-2.571.11.82.21 1.65.32 2.48-3.749.562-6.537 3.094-7.887 6.565 6.487.14 12.984.1 19.47.02-1.179-4.993-4.927-9.645-10.324-10.146-6.477-1.01-12.534 4.502-12.934 10.896 2.48-1.851 2.689-5.404 5.178-7.244z"/></mask></defs><g filter="url(#a)"><path fill="none" stroke="red" stroke-opacity=".2" stroke-width="4.6" d="M96.62 20.876a4.57 4.57 0 01-.684-.645c-.219-.207-.156-.147 0 0-2.624-3.046-.51-8.844 3.873-8.74 4.258-.221 6.097 4.371 5.248 7.974 1.139 1.07 2.288 2.15 3.428 3.242l-.06 4.463c.56.02 1.669.06 2.229.09.11-1.601.21-3.192.31-4.783-2.29-1.49-4.828-3.583-4.028-6.675.51-4.663 7.556-5.854 9.655-1.71 2.109 3.191-.37 6.704-3.269 8.225-.02 1.57-.04 3.151-.05 4.732 1.48.361 3.519-.39 4.698.761.34 3.222.14 6.474.09 9.706-1.28 1.49-3.378 2.912-2.918 5.183 1.089 7.355 2.648 14.64 4.058 21.944 8.945.51 16.311 9.317 14.652 18.252-1.11 9.085-11.164 15.62-19.9 12.819-7.936-2.043-13.233-10.928-11.064-18.873.91-4.672 4.388-8.265 8.306-10.676-.05-.56-.16-1.662-.21-2.223-3.659.721-7.357 2.622-8.906 6.215-1.72 4.322-2.808 8.875-4.318 13.279-9.445.078-18.89.039-28.326.019-1.13 3.492-2.638 7.065-5.627 9.396-5.727 4.983-15.073 4.862-20.62-.35-2.868-2.382-4.278-5.924-5.297-9.407-6.037-4.542-3.399-13.097-.34-18.66a560.871 560.871 0 00-4.108-7.186c-5.217-.07-10.425.13-15.632-.06-2.929.071-5.647-2.45-5.657-5.403-.16-7.324-.09-14.66-.03-21.984-.13-3.612 2.918-6.874 6.496-7.115 7.387-.27 14.783.02 22.18-.12 3.108.05 6.756-.43 9.185 1.993 1.819 1.52 2.469 3.932 2.379 6.233-.01 7.976.04 15.95-.07 23.925 1.19-2.932 3.078-6.204 6.587-6.504 4.927-.28 9.885-.28 14.812-.01 3.608.4 4.958 4.713 4.128 7.815-1.5 5.113-4.588 9.636-5.987 14.789.18.37.53 1.091.71 1.451 10.315.74 20.47-5.983 24.258-15.55 2.089-5.302 4.458-10.507 6.307-15.91.23-3.753-.36-7.495-.7-11.226-1.31.009-2.609.02-3.918.04-.75.7-1.02 2.46-2.369 2.08-.34-.52-1.04-1.56-1.39-2.07-2.918-.021-5.836.06-8.735-.221.01-.51.04-1.542.06-2.052 2.919-.31 5.857-.17 8.796-.17.46-.65 1.389-1.94 1.859-2.591.39.66 1.19 1.98 1.589 2.641 2.579-.05 5.167-.06 7.756-.06-.01-.83-.03-2.49-.03-3.331-.94-.841-1.869-1.692-2.789-2.522-2.178.56-4.757 1.31-6.616-.44zm.6-4.003c-.04.463.022.848.162 1.168.004.027.004.024 0 0 .646 1.47 2.947 1.543 4.466 1.314.26-.64.78-1.912 1.04-2.543-.26-.64-.77-1.911-1.02-2.55-1.909-.361-5.017-.06-4.648 2.61zm12.094-.04c-.25 2.552 2.72 2.801 4.558 2.571.3-.65.88-1.94 1.18-2.592-.29-.649-.87-1.95-1.16-2.61-1.859-.28-4.907.05-4.578 2.63.33 2.582 0 0 0 0zm-94.812 13.93c-.01 6.723-.07 13.448.03 20.171-.16 1.851 1.329 3.823 3.298 3.684 10.704.169 21.42.029 32.134.05-.05-7.986.06-15.96-.02-23.936.22-2.873-2.059-5.864-5.098-5.554-8.365-.06-16.721-.05-25.087-.01-3.069-.36-5.607 2.622-5.257 5.594.35 2.972 0 0 0 0zm90.495-1.17c.23 3.5.47 7.002.63 10.514 2.338-.01 4.677-.01 7.026-.01.94-1.28 1.899-2.54 2.888-3.771.01-2.251.01-4.504.03-6.745-3.518.02-7.046.02-10.574.011-3.529-.011 0 0 0 0zM98.65 58.768C94.262 68.596 83.597 75.42 72.793 74.68c-2.28-.11-4.028-2.712-3.379-4.874 1.42-4.322 3.608-8.345 5.358-12.547-6.997.04-13.983-.141-20.97.06-9.735.54-17.631 9.906-17.032 19.553.12 2.48 2.43 4.382 4.878 4.163 18.111.07 36.232-.012 54.343.028.12-.55.37-1.65.49-2.202-10.005-.309-20.02.061-30.035-.209l.72-2.052c10.034-.49 20.11-.11 30.154-.18 1.39-4.213 2.22-9.135 6.077-11.907 3.509-2.982 8.306-3.102 12.674-3.032-1.33-6.324-2.389-12.697-3.618-19.042-2.389.02-4.768.02-7.147.01-2.279 5.414-4.327 10.927-6.656 16.32-2.33 5.394 0 0 0 0zm-44.128-4.313c7.096.43 14.233.24 21.34.141-.54-1.4-.71-3.182-2.2-3.943-4.598-.38-9.235-.24-13.843-.1-2.439-.02-3.768 2.412-5.297 3.902-1.53 1.492 0 0 0 0zM36.31 57.22c.96 1.631 1.909 3.271 2.838 4.932a58.305 58.305 0 016.137-4.943 390 390 0 01-8.975.011c-2.989-.03 0 0 0 0zm77.001 6.954c1.25 5.053 1.95 10.216 3.219 15.27-.02 1.88 2.679 2.822 2.698.34-.434-4.456-1.457-8.826-2.33-13.212-.14-.023-.121-.02 0 0a134.4 134.4 0 01-.488-2.568c-1.04.05-2.069.11-3.099.17-1.029.06 0 0 0 0zm6.127 2.823c.21.77.62 2.31.83 3.08 4.298 1.362 8.326 4.924 8.286 9.757.73 5.984-4.838 11.627-10.835 10.937-5.647.13-10.455-5.394-9.785-10.967-.13-3.332 2.18-5.914 4.338-8.125-.11-.77-.32-2.292-.43-3.062-3.668 2.591-6.826 6.473-6.846 11.176-.64 7.496 6.207 14.58 13.743 13.95 7.546.06 13.843-7.505 12.664-14.92-.59-6.214-6.028-10.837-11.965-11.826zm1.45 5.693c.23 2.691.86 5.372.69 8.094-.56 3.082-5.248 3.802-6.847 1.152-1.07-2.422-1.29-5.114-1.92-7.656-2.928 3.503-3.617 9.126.31 12.207 4.578 4.504 12.984.631 13.054-5.622.37-3.693-2.489-6.364-5.287-8.175-2.799-1.813 0 0 0 0zm-80.54 10.816c1.739 4.713 5.187 9.166 10.365 10.196 7.146 1.982 14.252-3.392 16.251-10.156-1.08-.03-3.228-.08-4.307-.1-1.81 3.272-4.778 6.564-8.886 6.245-4.138.37-7.246-2.833-9.006-6.215-1.469 0-2.948.01-4.417.03-1.47.02 0 0 0 0zm13.423 3.823c2.699.13 4.518-2.152 6.337-3.753-4.278-.16-8.566-.15-12.844-.02 1.86 1.641 3.718 4.013 6.507 3.773zM29.124 29.251c2.11-.06 4.218-.08 6.327-.03a40.716 40.716 0 00-1.979 3.602c4.358.38 8.516 2.782 10.745 6.595 1.12 2.23 1.949 4.613 3.088 6.854l.24 1.831c-10.355-.06-20.72.07-31.074-.08 2.318-3.623 2.788-8.396 6.166-11.357 2.25-2.332 5.378-3.493 8.546-3.833a30.242 30.242 0 00-2.059-3.582c-.77-1.141 0 0 0 0zm-3.188 9.716c1.779-1.43 4.058-1.901 6.177-2.571.11.82.21 1.65.32 2.48-3.749.562-6.537 3.094-7.887 6.565 6.487.14 12.984.1 19.47.02-1.179-4.993-4.927-9.645-10.324-10.146-6.477-1.01-12.534 4.502-12.934 10.896 2.48-1.851 2.689-5.404 5.178-7.244z" mask="url(&quot;#b&quot;)"/><path fill="red" fill-opacity=".2" d="M96.62 20.876a4.57 4.57 0 01-.684-.645c-.219-.207-.156-.147 0 0-2.624-3.046-.51-8.844 3.873-8.74 4.258-.221 6.097 4.371 5.248 7.974 1.139 1.07 2.288 2.15 3.428 3.242l-.06 4.463c.56.02 1.669.06 2.229.09.11-1.601.21-3.192.31-4.783-2.29-1.49-4.828-3.583-4.028-6.675.51-4.663 7.556-5.854 9.655-1.71 2.109 3.191-.37 6.704-3.269 8.225-.02 1.57-.04 3.151-.05 4.732 1.48.361 3.519-.39 4.698.761.34 3.222.14 6.474.09 9.706-1.28 1.49-3.378 2.912-2.918 5.183 1.089 7.355 2.648 14.64 4.058 21.944 8.945.51 16.311 9.317 14.652 18.252-1.11 9.085-11.164 15.62-19.9 12.819-7.936-2.043-13.233-10.928-11.064-18.873.91-4.672 4.388-8.265 8.306-10.676-.05-.56-.16-1.662-.21-2.223-3.659.721-7.357 2.622-8.906 6.215-1.72 4.322-2.808 8.875-4.318 13.279-9.445.078-18.89.039-28.326.019-1.13 3.492-2.638 7.065-5.627 9.396-5.727 4.983-15.073 4.862-20.62-.35-2.868-2.382-4.278-5.924-5.297-9.407-6.037-4.542-3.399-13.097-.34-18.66a560.871 560.871 0 00-4.108-7.186c-5.217-.07-10.425.13-15.632-.06-2.929.071-5.647-2.45-5.657-5.403-.16-7.324-.09-14.66-.03-21.984-.13-3.612 2.918-6.874 6.496-7.115 7.387-.27 14.783.02 22.18-.12 3.108.05 6.756-.43 9.185 1.993 1.819 1.52 2.469 3.932 2.379 6.233-.01 7.976.04 15.95-.07 23.925 1.19-2.932 3.078-6.204 6.587-6.504 4.927-.28 9.885-.28 14.812-.01 3.608.4 4.958 4.713 4.128 7.815-1.5 5.113-4.588 9.636-5.987 14.789.18.37.53 1.091.71 1.451 10.315.74 20.47-5.983 24.258-15.55 2.089-5.302 4.458-10.507 6.307-15.91.23-3.753-.36-7.495-.7-11.226-1.31.009-2.609.02-3.918.04-.75.7-1.02 2.46-2.369 2.08-.34-.52-1.04-1.56-1.39-2.07-2.918-.021-5.836.06-8.735-.221.01-.51.04-1.542.06-2.052 2.919-.31 5.857-.17 8.796-.17.46-.65 1.389-1.94 1.859-2.591.39.66 1.19 1.98 1.589 2.641 2.579-.05 5.167-.06 7.756-.06-.01-.83-.03-2.49-.03-3.331-.94-.841-1.869-1.692-2.789-2.522-2.178.56-4.757 1.31-6.616-.44zm.6-4.003c-.04.463.022.848.162 1.168.004.027.004.024 0 0 .646 1.47 2.947 1.543 4.466 1.314.26-.64.78-1.912 1.04-2.543-.26-.64-.77-1.911-1.02-2.55-1.909-.361-5.017-.06-4.648 2.61zm12.094-.04c-.25 2.552 2.72 2.801 4.558 2.571.3-.65.88-1.94 1.18-2.592-.29-.649-.87-1.95-1.16-2.61-1.859-.28-4.907.05-4.578 2.63.33 2.582 0 0 0 0zm-94.812 13.93c-.01 6.723-.07 13.448.03 20.171-.16 1.851 1.329 3.823 3.298 3.684 10.704.169 21.42.029 32.134.05-.05-7.986.06-15.96-.02-23.936.22-2.873-2.059-5.864-5.098-5.554-8.365-.06-16.721-.05-25.087-.01-3.069-.36-5.607 2.622-5.257 5.594.35 2.972 0 0 0 0zm90.495-1.17c.23 3.5.47 7.002.63 10.514 2.338-.01 4.677-.01 7.026-.01.94-1.28 1.899-2.54 2.888-3.771.01-2.251.01-4.504.03-6.745-3.518.02-7.046.02-10.574.011-3.529-.011 0 0 0 0zM98.65 58.768C94.262 68.596 83.597 75.42 72.793 74.68c-2.28-.11-4.028-2.712-3.379-4.874 1.42-4.322 3.608-8.345 5.358-12.547-6.997.04-13.983-.141-20.97.06-9.735.54-17.631 9.906-17.032 19.553.12 2.48 2.43 4.382 4.878 4.163 18.111.07 36.232-.012 54.343.028.12-.55.37-1.65.49-2.202-10.005-.309-20.02.061-30.035-.209l.72-2.052c10.034-.49 20.11-.11 30.154-.18 1.39-4.213 2.22-9.135 6.077-11.907 3.509-2.982 8.306-3.102 12.674-3.032-1.33-6.324-2.389-12.697-3.618-19.042-2.389.02-4.768.02-7.147.01-2.279 5.414-4.327 10.927-6.656 16.32-2.33 5.394 0 0 0 0zm-44.128-4.313c7.096.43 14.233.24 21.34.141-.54-1.4-.71-3.182-2.2-3.943-4.598-.38-9.235-.24-13.843-.1-2.439-.02-3.768 2.412-5.297 3.902-1.53 1.492 0 0 0 0zM36.31 57.22c.96 1.631 1.909 3.271 2.838 4.932a58.305 58.305 0 016.137-4.943 390 390 0 01-8.975.011c-2.989-.03 0 0 0 0zm77.001 6.954c1.25 5.053 1.95 10.216 3.219 15.27-.02 1.88 2.679 2.822 2.698.34-.434-4.456-1.457-8.826-2.33-13.212-.14-.023-.121-.02 0 0a134.4 134.4 0 01-.488-2.568c-1.04.05-2.069.11-3.099.17-1.029.06 0 0 0 0zm6.127 2.823c.21.77.62 2.31.83 3.08 4.298 1.362 8.326 4.924 8.286 9.757.73 5.984-4.838 11.627-10.835 10.937-5.647.13-10.455-5.394-9.785-10.967-.13-3.332 2.18-5.914 4.338-8.125-.11-.77-.32-2.292-.43-3.062-3.668 2.591-6.826 6.473-6.846 11.176-.64 7.496 6.207 14.58 13.743 13.95 7.546.06 13.843-7.505 12.664-14.92-.59-6.214-6.028-10.837-11.965-11.826zm1.45 5.693c.23 2.691.86 5.372.69 8.094-.56 3.082-5.248 3.802-6.847 1.152-1.07-2.422-1.29-5.114-1.92-7.656-2.928 3.503-3.617 9.126.31 12.207 4.578 4.504 12.984.631 13.054-5.622.37-3.693-2.489-6.364-5.287-8.175-2.799-1.813 0 0 0 0zm-80.54 10.816c1.739 4.713 5.187 9.166 10.365 10.196 7.146 1.982 14.252-3.392 16.251-10.156-1.08-.03-3.228-.08-4.307-.1-1.81 3.272-4.778 6.564-8.886 6.245-4.138.37-7.246-2.833-9.006-6.215-1.469 0-2.948.01-4.417.03-1.47.02 0 0 0 0zm13.423 3.823c2.699.13 4.518-2.152 6.337-3.753-4.278-.16-8.566-.15-12.844-.02 1.86 1.641 3.718 4.013 6.507 3.773zM29.124 29.251c2.11-.06 4.218-.08 6.327-.03a40.716 40.716 0 00-1.979 3.602c4.358.38 8.516 2.782 10.745 6.595 1.12 2.23 1.949 4.613 3.088 6.854l.24 1.831c-10.355-.06-20.72.07-31.074-.08 2.318-3.623 2.788-8.396 6.166-11.357 2.25-2.332 5.378-3.493 8.546-3.833a30.242 30.242 0 00-2.059-3.582c-.77-1.141 0 0 0 0zm-3.188 9.716c1.779-1.43 4.058-1.901 6.177-2.571.11.82.21 1.65.32 2.48-3.749.562-6.537 3.094-7.887 6.565 6.487.14 12.984.1 19.47.02-1.179-4.993-4.927-9.645-10.324-10.146-6.477-1.01-12.534 4.502-12.934 10.896 2.48-1.851 2.689-5.404 5.178-7.244z"/></g><g filter="url(#a)"><path fill="none" stroke="red" stroke-opacity=".2" stroke-width="4.6" d="M96.62 20.876a4.57 4.57 0 01-.684-.645c-.219-.207-.156-.147 0 0-2.624-3.046-.51-8.844 3.873-8.74 4.258-.221 6.097 4.371 5.248 7.974 1.139 1.07 2.288 2.15 3.428 3.242l-.06 4.463c.56.02 1.669.06 2.229.09.11-1.601.21-3.192.31-4.783-2.29-1.49-4.828-3.583-4.028-6.675.51-4.663 7.556-5.854 9.655-1.71 2.109 3.191-.37 6.704-3.269 8.225-.02 1.57-.04 3.151-.05 4.732 1.48.361 3.519-.39 4.698.761.34 3.222.14 6.474.09 9.706-1.28 1.49-3.378 2.912-2.918 5.183 1.089 7.355 2.648 14.64 4.058 21.944 8.945.51 16.311 9.317 14.652 18.252-1.11 9.085-11.164 15.62-19.9 12.819-7.936-2.043-13.233-10.928-11.064-18.873.91-4.672 4.388-8.265 8.306-10.676-.05-.56-.16-1.662-.21-2.223-3.659.721-7.357 2.622-8.906 6.215-1.72 4.322-2.808 8.875-4.318 13.279-9.445.078-18.89.039-28.326.019-1.13 3.492-2.638 7.065-5.627 9.396-5.727 4.983-15.073 4.862-20.62-.35-2.868-2.382-4.278-5.924-5.297-9.407-6.037-4.542-3.399-13.097-.34-18.66a560.871 560.871 0 00-4.108-7.186c-5.217-.07-10.425.13-15.632-.06-2.929.071-5.647-2.45-5.657-5.403-.16-7.324-.09-14.66-.03-21.984-.13-3.612 2.918-6.874 6.496-7.115 7.387-.27 14.783.02 22.18-.12 3.108.05 6.756-.43 9.185 1.993 1.819 1.52 2.469 3.932 2.379 6.233-.01 7.976.04 15.95-.07 23.925 1.19-2.932 3.078-6.204 6.587-6.504 4.927-.28 9.885-.28 14.812-.01 3.608.4 4.958 4.713 4.128 7.815-1.5 5.113-4.588 9.636-5.987 14.789.18.37.53 1.091.71 1.451 10.315.74 20.47-5.983 24.258-15.55 2.089-5.302 4.458-10.507 6.307-15.91.23-3.753-.36-7.495-.7-11.226-1.31.009-2.609.02-3.918.04-.75.7-1.02 2.46-2.369 2.08-.34-.52-1.04-1.56-1.39-2.07-2.918-.021-5.836.06-8.735-.221.01-.51.04-1.542.06-2.052 2.919-.31 5.857-.17 8.796-.17.46-.65 1.389-1.94 1.859-2.591.39.66 1.19 1.98 1.589 2.641 2.579-.05 5.167-.06 7.756-.06-.01-.83-.03-2.49-.03-3.331-.94-.841-1.869-1.692-2.789-2.522-2.178.56-4.757 1.31-6.616-.44zm.6-4.003c-.04.463.022.848.162 1.168.004.027.004.024 0 0 .646 1.47 2.947 1.543 4.466 1.314.26-.64.78-1.912 1.04-2.543-.26-.64-.77-1.911-1.02-2.55-1.909-.361-5.017-.06-4.648 2.61zm12.094-.04c-.25 2.552 2.72 2.801 4.558 2.571.3-.65.88-1.94 1.18-2.592-.29-.649-.87-1.95-1.16-2.61-1.859-.28-4.907.05-4.578 2.63.33 2.582 0 0 0 0zm-94.812 13.93c-.01 6.723-.07 13.448.03 20.171-.16 1.851 1.329 3.823 3.298 3.684 10.704.169 21.42.029 32.134.05-.05-7.986.06-15.96-.02-23.936.22-2.873-2.059-5.864-5.098-5.554-8.365-.06-16.721-.05-25.087-.01-3.069-.36-5.607 2.622-5.257 5.594.35 2.972 0 0 0 0zm90.495-1.17c.23 3.5.47 7.002.63 10.514 2.338-.01 4.677-.01 7.026-.01.94-1.28 1.899-2.54 2.888-3.771.01-2.251.01-4.504.03-6.745-3.518.02-7.046.02-10.574.011-3.529-.011 0 0 0 0zM98.65 58.768C94.262 68.596 83.597 75.42 72.793 74.68c-2.28-.11-4.028-2.712-3.379-4.874 1.42-4.322 3.608-8.345 5.358-12.547-6.997.04-13.983-.141-20.97.06-9.735.54-17.631 9.906-17.032 19.553.12 2.48 2.43 4.382 4.878 4.163 18.111.07 36.232-.012 54.343.028.12-.55.37-1.65.49-2.202-10.005-.309-20.02.061-30.035-.209l.72-2.052c10.034-.49 20.11-.11 30.154-.18 1.39-4.213 2.22-9.135 6.077-11.907 3.509-2.982 8.306-3.102 12.674-3.032-1.33-6.324-2.389-12.697-3.618-19.042-2.389.02-4.768.02-7.147.01-2.279 5.414-4.327 10.927-6.656 16.32-2.33 5.394 0 0 0 0zm-44.128-4.313c7.096.43 14.233.24 21.34.141-.54-1.4-.71-3.182-2.2-3.943-4.598-.38-9.235-.24-13.843-.1-2.439-.02-3.768 2.412-5.297 3.902-1.53 1.492 0 0 0 0zM36.31 57.22c.96 1.631 1.909 3.271 2.838 4.932a58.305 58.305 0 016.137-4.943 390 390 0 01-8.975.011c-2.989-.03 0 0 0 0zm77.001 6.954c1.25 5.053 1.95 10.216 3.219 15.27-.02 1.88 2.679 2.822 2.698.34-.434-4.456-1.457-8.826-2.33-13.212-.14-.023-.121-.02 0 0a134.4 134.4 0 01-.488-2.568c-1.04.05-2.069.11-3.099.17-1.029.06 0 0 0 0zm6.127 2.823c.21.77.62 2.31.83 3.08 4.298 1.362 8.326 4.924 8.286 9.757.73 5.984-4.838 11.627-10.835 10.937-5.647.13-10.455-5.394-9.785-10.967-.13-3.332 2.18-5.914 4.338-8.125-.11-.77-.32-2.292-.43-3.062-3.668 2.591-6.826 6.473-6.846 11.176-.64 7.496 6.207 14.58 13.743 13.95 7.546.06 13.843-7.505 12.664-14.92-.59-6.214-6.028-10.837-11.965-11.826zm1.45 5.693c.23 2.691.86 5.372.69 8.094-.56 3.082-5.248 3.802-6.847 1.152-1.07-2.422-1.29-5.114-1.92-7.656-2.928 3.503-3.617 9.126.31 12.207 4.578 4.504 12.984.631 13.054-5.622.37-3.693-2.489-6.364-5.287-8.175-2.799-1.813 0 0 0 0zm-80.54 10.816c1.739 4.713 5.187 9.166 10.365 10.196 7.146 1.982 14.252-3.392 16.251-10.156-1.08-.03-3.228-.08-4.307-.1-1.81 3.272-4.778 6.564-8.886 6.245-4.138.37-7.246-2.833-9.006-6.215-1.469 0-2.948.01-4.417.03-1.47.02 0 0 0 0zm13.423 3.823c2.699.13 4.518-2.152 6.337-3.753-4.278-.16-8.566-.15-12.844-.02 1.86 1.641 3.718 4.013 6.507 3.773zM29.124 29.251c2.11-.06 4.218-.08 6.327-.03a40.716 40.716 0 00-1.979 3.602c4.358.38 8.516 2.782 10.745 6.595 1.12 2.23 1.949 4.613 3.088 6.854l.24 1.831c-10.355-.06-20.72.07-31.074-.08 2.318-3.623 2.788-8.396 6.166-11.357 2.25-2.332 5.378-3.493 8.546-3.833a30.242 30.242 0 00-2.059-3.582c-.77-1.141 0 0 0 0zm-3.188 9.716c1.779-1.43 4.058-1.901 6.177-2.571.11.82.21 1.65.32 2.48-3.749.562-6.537 3.094-7.887 6.565 6.487.14 12.984.1 19.47.02-1.179-4.993-4.927-9.645-10.324-10.146-6.477-1.01-12.534 4.502-12.934 10.896 2.48-1.851 2.689-5.404 5.178-7.244z" mask="url(&quot;#b&quot;)"/><path fill="red" fill-opacity=".2" d="M96.62 20.876a4.57 4.57 0 01-.684-.645c-.219-.207-.156-.147 0 0-2.624-3.046-.51-8.844 3.873-8.74 4.258-.221 6.097 4.371 5.248 7.974 1.139 1.07 2.288 2.15 3.428 3.242l-.06 4.463c.56.02 1.669.06 2.229.09.11-1.601.21-3.192.31-4.783-2.29-1.49-4.828-3.583-4.028-6.675.51-4.663 7.556-5.854 9.655-1.71 2.109 3.191-.37 6.704-3.269 8.225-.02 1.57-.04 3.151-.05 4.732 1.48.361 3.519-.39 4.698.761.34 3.222.14 6.474.09 9.706-1.28 1.49-3.378 2.912-2.918 5.183 1.089 7.355 2.648 14.64 4.058 21.944 8.945.51 16.311 9.317 14.652 18.252-1.11 9.085-11.164 15.62-19.9 12.819-7.936-2.043-13.233-10.928-11.064-18.873.91-4.672 4.388-8.265 8.306-10.676-.05-.56-.16-1.662-.21-2.223-3.659.721-7.357 2.622-8.906 6.215-1.72 4.322-2.808 8.875-4.318 13.279-9.445.078-18.89.039-28.326.019-1.13 3.492-2.638 7.065-5.627 9.396-5.727 4.983-15.073 4.862-20.62-.35-2.868-2.382-4.278-5.924-5.297-9.407-6.037-4.542-3.399-13.097-.34-18.66a560.871 560.871 0 00-4.108-7.186c-5.217-.07-10.425.13-15.632-.06-2.929.071-5.647-2.45-5.657-5.403-.16-7.324-.09-14.66-.03-21.984-.13-3.612 2.918-6.874 6.496-7.115 7.387-.27 14.783.02 22.18-.12 3.108.05 6.756-.43 9.185 1.993 1.819 1.52 2.469 3.932 2.379 6.233-.01 7.976.04 15.95-.07 23.925 1.19-2.932 3.078-6.204 6.587-6.504 4.927-.28 9.885-.28 14.812-.01 3.608.4 4.958 4.713 4.128 7.815-1.5 5.113-4.588 9.636-5.987 14.789.18.37.53 1.091.71 1.451 10.315.74 20.47-5.983 24.258-15.55 2.089-5.302 4.458-10.507 6.307-15.91.23-3.753-.36-7.495-.7-11.226-1.31.009-2.609.02-3.918.04-.75.7-1.02 2.46-2.369 2.08-.34-.52-1.04-1.56-1.39-2.07-2.918-.021-5.836.06-8.735-.221.01-.51.04-1.542.06-2.052 2.919-.31 5.857-.17 8.796-.17.46-.65 1.389-1.94 1.859-2.591.39.66 1.19 1.98 1.589 2.641 2.579-.05 5.167-.06 7.756-.06-.01-.83-.03-2.49-.03-3.331-.94-.841-1.869-1.692-2.789-2.522-2.178.56-4.757 1.31-6.616-.44zm.6-4.003c-.04.463.022.848.162 1.168.004.027.004.024 0 0 .646 1.47 2.947 1.543 4.466 1.314.26-.64.78-1.912 1.04-2.543-.26-.64-.77-1.911-1.02-2.55-1.909-.361-5.017-.06-4.648 2.61zm12.094-.04c-.25 2.552 2.72 2.801 4.558 2.571.3-.65.88-1.94 1.18-2.592-.29-.649-.87-1.95-1.16-2.61-1.859-.28-4.907.05-4.578 2.63.33 2.582 0 0 0 0zm-94.812 13.93c-.01 6.723-.07 13.448.03 20.171-.16 1.851 1.329 3.823 3.298 3.684 10.704.169 21.42.029 32.134.05-.05-7.986.06-15.96-.02-23.936.22-2.873-2.059-5.864-5.098-5.554-8.365-.06-16.721-.05-25.087-.01-3.069-.36-5.607 2.622-5.257 5.594.35 2.972 0 0 0 0zm90.495-1.17c.23 3.5.47 7.002.63 10.514 2.338-.01 4.677-.01 7.026-.01.94-1.28 1.899-2.54 2.888-3.771.01-2.251.01-4.504.03-6.745-3.518.02-7.046.02-10.574.011-3.529-.011 0 0 0 0zM98.65 58.768C94.262 68.596 83.597 75.42 72.793 74.68c-2.28-.11-4.028-2.712-3.379-4.874 1.42-4.322 3.608-8.345 5.358-12.547-6.997.04-13.983-.141-20.97.06-9.735.54-17.631 9.906-17.032 19.553.12 2.48 2.43 4.382 4.878 4.163 18.111.07 36.232-.012 54.343.028.12-.55.37-1.65.49-2.202-10.005-.309-20.02.061-30.035-.209l.72-2.052c10.034-.49 20.11-.11 30.154-.18 1.39-4.213 2.22-9.135 6.077-11.907 3.509-2.982 8.306-3.102 12.674-3.032-1.33-6.324-2.389-12.697-3.618-19.042-2.389.02-4.768.02-7.147.01-2.279 5.414-4.327 10.927-6.656 16.32-2.33 5.394 0 0 0 0zm-44.128-4.313c7.096.43 14.233.24 21.34.141-.54-1.4-.71-3.182-2.2-3.943-4.598-.38-9.235-.24-13.843-.1-2.439-.02-3.768 2.412-5.297 3.902-1.53 1.492 0 0 0 0zM36.31 57.22c.96 1.631 1.909 3.271 2.838 4.932a58.305 58.305 0 016.137-4.943 390 390 0 01-8.975.011c-2.989-.03 0 0 0 0zm77.001 6.954c1.25 5.053 1.95 10.216 3.219 15.27-.02 1.88 2.679 2.822 2.698.34-.434-4.456-1.457-8.826-2.33-13.212-.14-.023-.121-.02 0 0a134.4 134.4 0 01-.488-2.568c-1.04.05-2.069.11-3.099.17-1.029.06 0 0 0 0zm6.127 2.823c.21.77.62 2.31.83 3.08 4.298 1.362 8.326 4.924 8.286 9.757.73 5.984-4.838 11.627-10.835 10.937-5.647.13-10.455-5.394-9.785-10.967-.13-3.332 2.18-5.914 4.338-8.125-.11-.77-.32-2.292-.43-3.062-3.668 2.591-6.826 6.473-6.846 11.176-.64 7.496 6.207 14.58 13.743 13.95 7.546.06 13.843-7.505 12.664-14.92-.59-6.214-6.028-10.837-11.965-11.826zm1.45 5.693c.23 2.691.86 5.372.69 8.094-.56 3.082-5.248 3.802-6.847 1.152-1.07-2.422-1.29-5.114-1.92-7.656-2.928 3.503-3.617 9.126.31 12.207 4.578 4.504 12.984.631 13.054-5.622.37-3.693-2.489-6.364-5.287-8.175-2.799-1.813 0 0 0 0zm-80.54 10.816c1.739 4.713 5.187 9.166 10.365 10.196 7.146 1.982 14.252-3.392 16.251-10.156-1.08-.03-3.228-.08-4.307-.1-1.81 3.272-4.778 6.564-8.886 6.245-4.138.37-7.246-2.833-9.006-6.215-1.469 0-2.948.01-4.417.03-1.47.02 0 0 0 0zm13.423 3.823c2.699.13 4.518-2.152 6.337-3.753-4.278-.16-8.566-.15-12.844-.02 1.86 1.641 3.718 4.013 6.507 3.773zM29.124 29.251c2.11-.06 4.218-.08 6.327-.03a40.716 40.716 0 00-1.979 3.602c4.358.38 8.516 2.782 10.745 6.595 1.12 2.23 1.949 4.613 3.088 6.854l.24 1.831c-10.355-.06-20.72.07-31.074-.08 2.318-3.623 2.788-8.396 6.166-11.357 2.25-2.332 5.378-3.493 8.546-3.833a30.242 30.242 0 00-2.059-3.582c-.77-1.141 0 0 0 0zm-3.188 9.716c1.779-1.43 4.058-1.901 6.177-2.571.11.82.21 1.65.32 2.48-3.749.562-6.537 3.094-7.887 6.565 6.487.14 12.984.1 19.47.02-1.179-4.993-4.927-9.645-10.324-10.146-6.477-1.01-12.534 4.502-12.934 10.896 2.48-1.851 2.689-5.404 5.178-7.244z"/></g><path fill="red" d="M96.62 20.876a4.57 4.57 0 01-.684-.645c-.219-.207-.156-.147 0 0-2.624-3.046-.51-8.844 3.873-8.74 4.258-.221 6.097 4.371 5.248 7.974 1.139 1.07 2.288 2.15 3.428 3.242l-.06 4.463c.56.02 1.669.06 2.229.09.11-1.601.21-3.192.31-4.783-2.29-1.49-4.828-3.583-4.028-6.675.51-4.663 7.556-5.854 9.655-1.71 2.109 3.191-.37 6.704-3.269 8.225-.02 1.57-.04 3.151-.05 4.732 1.48.361 3.519-.39 4.698.761.34 3.222.14 6.474.09 9.706-1.28 1.49-3.378 2.912-2.918 5.183 1.089 7.355 2.648 14.64 4.058 21.944 8.945.51 16.311 9.317 14.652 18.252-1.11 9.085-11.164 15.62-19.9 12.819-7.936-2.043-13.233-10.928-11.064-18.873.91-4.672 4.388-8.265 8.306-10.676-.05-.56-.16-1.662-.21-2.223-3.659.721-7.357 2.622-8.906 6.215-1.72 4.322-2.808 8.875-4.318 13.279-9.445.078-18.89.039-28.326.019-1.13 3.492-2.638 7.065-5.627 9.396-5.727 4.983-15.073 4.862-20.62-.35-2.868-2.382-4.278-5.924-5.297-9.407-6.037-4.542-3.399-13.097-.34-18.66a560.871 560.871 0 00-4.108-7.186c-5.217-.07-10.425.13-15.632-.06-2.929.071-5.647-2.45-5.657-5.403-.16-7.324-.09-14.66-.03-21.984-.13-3.612 2.918-6.874 6.496-7.115 7.387-.27 14.783.02 22.18-.12 3.108.05 6.756-.43 9.185 1.993 1.819 1.52 2.469 3.932 2.379 6.233-.01 7.976.04 15.95-.07 23.925 1.19-2.932 3.078-6.204 6.587-6.504 4.927-.28 9.885-.28 14.812-.01 3.608.4 4.958 4.713 4.128 7.815-1.5 5.113-4.588 9.636-5.987 14.789.18.37.53 1.091.71 1.451 10.315.74 20.47-5.983 24.258-15.55 2.089-5.302 4.458-10.507 6.307-15.91.23-3.753-.36-7.495-.7-11.226-1.31.009-2.609.02-3.918.04-.75.7-1.02 2.46-2.369 2.08-.34-.52-1.04-1.56-1.39-2.07-2.918-.021-5.836.06-8.735-.221.01-.51.04-1.542.06-2.052 2.919-.31 5.857-.17 8.796-.17.46-.65 1.389-1.94 1.859-2.591.39.66 1.19 1.98 1.589 2.641 2.579-.05 5.167-.06 7.756-.06-.01-.83-.03-2.49-.03-3.331-.94-.841-1.869-1.692-2.789-2.522-2.178.56-4.757 1.31-6.616-.44zm.6-4.003c-.04.463.022.848.162 1.168.004.027.004.024 0 0 .646 1.47 2.947 1.543 4.466 1.314.26-.64.78-1.912 1.04-2.543-.26-.64-.77-1.911-1.02-2.55-1.909-.361-5.017-.06-4.648 2.61zm12.094-.04c-.25 2.552 2.72 2.801 4.558 2.571.3-.65.88-1.94 1.18-2.592-.29-.649-.87-1.95-1.16-2.61-1.859-.28-4.907.05-4.578 2.63.33 2.582 0 0 0 0zm-94.812 13.93c-.01 6.723-.07 13.448.03 20.171-.16 1.851 1.329 3.823 3.298 3.684 10.704.169 21.42.029 32.134.05-.05-7.986.06-15.96-.02-23.936.22-2.873-2.059-5.864-5.098-5.554-8.365-.06-16.721-.05-25.087-.01-3.069-.36-5.607 2.622-5.257 5.594.35 2.972 0 0 0 0zm90.495-1.17c.23 3.5.47 7.002.63 10.514 2.338-.01 4.677-.01 7.026-.01.94-1.28 1.899-2.54 2.888-3.771.01-2.251.01-4.504.03-6.745-3.518.02-7.046.02-10.574.011-3.529-.011 0 0 0 0zM98.65 58.768C94.262 68.596 83.597 75.42 72.793 74.68c-2.28-.11-4.028-2.712-3.379-4.874 1.42-4.322 3.608-8.345 5.358-12.547-6.997.04-13.983-.141-20.97.06-9.735.54-17.631 9.906-17.032 19.553.12 2.48 2.43 4.382 4.878 4.163 18.111.07 36.232-.012 54.343.028.12-.55.37-1.65.49-2.202-10.005-.309-20.02.061-30.035-.209l.72-2.052c10.034-.49 20.11-.11 30.154-.18 1.39-4.213 2.22-9.135 6.077-11.907 3.509-2.982 8.306-3.102 12.674-3.032-1.33-6.324-2.389-12.697-3.618-19.042-2.389.02-4.768.02-7.147.01-2.279 5.414-4.327 10.927-6.656 16.32-2.33 5.394 0 0 0 0zm-44.128-4.313c7.096.43 14.233.24 21.34.141-.54-1.4-.71-3.182-2.2-3.943-4.598-.38-9.235-.24-13.843-.1-2.439-.02-3.768 2.412-5.297 3.902-1.53 1.492 0 0 0 0zM36.31 57.22c.96 1.631 1.909 3.271 2.838 4.932a58.305 58.305 0 016.137-4.943 390 390 0 01-8.975.011c-2.989-.03 0 0 0 0zm77.001 6.954c1.25 5.053 1.95 10.216 3.219 15.27-.02 1.88 2.679 2.822 2.698.34-.434-4.456-1.457-8.826-2.33-13.212-.14-.023-.121-.02 0 0a134.4 134.4 0 01-.488-2.568c-1.04.05-2.069.11-3.099.17-1.029.06 0 0 0 0zm6.127 2.823c.21.77.62 2.31.83 3.08 4.298 1.362 8.326 4.924 8.286 9.757.73 5.984-4.838 11.627-10.835 10.937-5.647.13-10.455-5.394-9.785-10.967-.13-3.332 2.18-5.914 4.338-8.125-.11-.77-.32-2.292-.43-3.062-3.668 2.591-6.826 6.473-6.846 11.176-.64 7.496 6.207 14.58 13.743 13.95 7.546.06 13.843-7.505 12.664-14.92-.59-6.214-6.028-10.837-11.965-11.826zm1.45 5.693c.23 2.691.86 5.372.69 8.094-.56 3.082-5.248 3.802-6.847 1.152-1.07-2.422-1.29-5.114-1.92-7.656-2.928 3.503-3.617 9.126.31 12.207 4.578 4.504 12.984.631 13.054-5.622.37-3.693-2.489-6.364-5.287-8.175-2.799-1.813 0 0 0 0zm-80.54 10.816c1.739 4.713 5.187 9.166 10.365 10.196 7.146 1.982 14.252-3.392 16.251-10.156-1.08-.03-3.228-.08-4.307-.1-1.81 3.272-4.778 6.564-8.886 6.245-4.138.37-7.246-2.833-9.006-6.215-1.469 0-2.948.01-4.417.03-1.47.02 0 0 0 0zm13.423 3.823c2.699.13 4.518-2.152 6.337-3.753-4.278-.16-8.566-.15-12.844-.02 1.86 1.641 3.718 4.013 6.507 3.773zM29.124 29.251c2.11-.06 4.218-.08 6.327-.03a40.716 40.716 0 00-1.979 3.602c4.358.38 8.516 2.782 10.745 6.595 1.12 2.23 1.949 4.613 3.088 6.854l.24 1.831c-10.355-.06-20.72.07-31.074-.08 2.318-3.623 2.788-8.396 6.166-11.357 2.25-2.332 5.378-3.493 8.546-3.833a30.242 30.242 0 00-2.059-3.582c-.77-1.141 0 0 0 0zm-3.188 9.716c1.779-1.43 4.058-1.901 6.177-2.571.11.82.21 1.65.32 2.48-3.749.562-6.537 3.094-7.887 6.565 6.487.14 12.984.1 19.47.02-1.179-4.993-4.927-9.645-10.324-10.146-6.477-1.01-12.534 4.502-12.934 10.896 2.48-1.851 2.689-5.404 5.178-7.244z"/><path fill="url(#c)" d="M96.62 20.876a4.57 4.57 0 01-.684-.645c-.219-.207-.156-.147 0 0-2.624-3.046-.51-8.844 3.873-8.74 4.258-.221 6.097 4.371 5.248 7.974 1.139 1.07 2.288 2.15 3.428 3.242l-.06 4.463c.56.02 1.669.06 2.229.09.11-1.601.21-3.192.31-4.783-2.29-1.49-4.828-3.583-4.028-6.675.51-4.663 7.556-5.854 9.655-1.71 2.109 3.191-.37 6.704-3.269 8.225-.02 1.57-.04 3.151-.05 4.732 1.48.361 3.519-.39 4.698.761.34 3.222.14 6.474.09 9.706-1.28 1.49-3.378 2.912-2.918 5.183 1.089 7.355 2.648 14.64 4.058 21.944 8.945.51 16.311 9.317 14.652 18.252-1.11 9.085-11.164 15.62-19.9 12.819-7.936-2.043-13.233-10.928-11.064-18.873.91-4.672 4.388-8.265 8.306-10.676-.05-.56-.16-1.662-.21-2.223-3.659.721-7.357 2.622-8.906 6.215-1.72 4.322-2.808 8.875-4.318 13.279-9.445.078-18.89.039-28.326.019-1.13 3.492-2.638 7.065-5.627 9.396-5.727 4.983-15.073 4.862-20.62-.35-2.868-2.382-4.278-5.924-5.297-9.407-6.037-4.542-3.399-13.097-.34-18.66a560.871 560.871 0 00-4.108-7.186c-5.217-.07-10.425.13-15.632-.06-2.929.071-5.647-2.45-5.657-5.403-.16-7.324-.09-14.66-.03-21.984-.13-3.612 2.918-6.874 6.496-7.115 7.387-.27 14.783.02 22.18-.12 3.108.05 6.756-.43 9.185 1.993 1.819 1.52 2.469 3.932 2.379 6.233-.01 7.976.04 15.95-.07 23.925 1.19-2.932 3.078-6.204 6.587-6.504 4.927-.28 9.885-.28 14.812-.01 3.608.4 4.958 4.713 4.128 7.815-1.5 5.113-4.588 9.636-5.987 14.789.18.37.53 1.091.71 1.451 10.315.74 20.47-5.983 24.258-15.55 2.089-5.302 4.458-10.507 6.307-15.91.23-3.753-.36-7.495-.7-11.226-1.31.009-2.609.02-3.918.04-.75.7-1.02 2.46-2.369 2.08-.34-.52-1.04-1.56-1.39-2.07-2.918-.021-5.836.06-8.735-.221.01-.51.04-1.542.06-2.052 2.919-.31 5.857-.17 8.796-.17.46-.65 1.389-1.94 1.859-2.591.39.66 1.19 1.98 1.589 2.641 2.579-.05 5.167-.06 7.756-.06-.01-.83-.03-2.49-.03-3.331-.94-.841-1.869-1.692-2.789-2.522-2.178.56-4.757 1.31-6.616-.44zm.6-4.003c-.04.463.022.848.162 1.168.004.027.004.024 0 0 .646 1.47 2.947 1.543 4.466 1.314.26-.64.78-1.912 1.04-2.543-.26-.64-.77-1.911-1.02-2.55-1.909-.361-5.017-.06-4.648 2.61zm12.094-.04c-.25 2.552 2.72 2.801 4.558 2.571.3-.65.88-1.94 1.18-2.592-.29-.649-.87-1.95-1.16-2.61-1.859-.28-4.907.05-4.578 2.63.33 2.582 0 0 0 0zm-94.812 13.93c-.01 6.723-.07 13.448.03 20.171-.16 1.851 1.329 3.823 3.298 3.684 10.704.169 21.42.029 32.134.05-.05-7.986.06-15.96-.02-23.936.22-2.873-2.059-5.864-5.098-5.554-8.365-.06-16.721-.05-25.087-.01-3.069-.36-5.607 2.622-5.257 5.594.35 2.972 0 0 0 0zm90.495-1.17c.23 3.5.47 7.002.63 10.514 2.338-.01 4.677-.01 7.026-.01.94-1.28 1.899-2.54 2.888-3.771.01-2.251.01-4.504.03-6.745-3.518.02-7.046.02-10.574.011-3.529-.011 0 0 0 0zM98.65 58.768C94.262 68.596 83.597 75.42 72.793 74.68c-2.28-.11-4.028-2.712-3.379-4.874 1.42-4.322 3.608-8.345 5.358-12.547-6.997.04-13.983-.141-20.97.06-9.735.54-17.631 9.906-17.032 19.553.12 2.48 2.43 4.382 4.878 4.163 18.111.07 36.232-.012 54.343.028.12-.55.37-1.65.49-2.202-10.005-.309-20.02.061-30.035-.209l.72-2.052c10.034-.49 20.11-.11 30.154-.18 1.39-4.213 2.22-9.135 6.077-11.907 3.509-2.982 8.306-3.102 12.674-3.032-1.33-6.324-2.389-12.697-3.618-19.042-2.389.02-4.768.02-7.147.01-2.279 5.414-4.327 10.927-6.656 16.32-2.33 5.394 0 0 0 0zm-44.128-4.313c7.096.43 14.233.24 21.34.141-.54-1.4-.71-3.182-2.2-3.943-4.598-.38-9.235-.24-13.843-.1-2.439-.02-3.768 2.412-5.297 3.902-1.53 1.492 0 0 0 0zM36.31 57.22c.96 1.631 1.909 3.271 2.838 4.932a58.305 58.305 0 016.137-4.943 390 390 0 01-8.975.011c-2.989-.03 0 0 0 0zm77.001 6.954c1.25 5.053 1.95 10.216 3.219 15.27-.02 1.88 2.679 2.822 2.698.34-.434-4.456-1.457-8.826-2.33-13.212-.14-.023-.121-.02 0 0a134.4 134.4 0 01-.488-2.568c-1.04.05-2.069.11-3.099.17-1.029.06 0 0 0 0zm6.127 2.823c.21.77.62 2.31.83 3.08 4.298 1.362 8.326 4.924 8.286 9.757.73 5.984-4.838 11.627-10.835 10.937-5.647.13-10.455-5.394-9.785-10.967-.13-3.332 2.18-5.914 4.338-8.125-.11-.77-.32-2.292-.43-3.062-3.668 2.591-6.826 6.473-6.846 11.176-.64 7.496 6.207 14.58 13.743 13.95 7.546.06 13.843-7.505 12.664-14.92-.59-6.214-6.028-10.837-11.965-11.826zm1.45 5.693c.23 2.691.86 5.372.69 8.094-.56 3.082-5.248 3.802-6.847 1.152-1.07-2.422-1.29-5.114-1.92-7.656-2.928 3.503-3.617 9.126.31 12.207 4.578 4.504 12.984.631 13.054-5.622.37-3.693-2.489-6.364-5.287-8.175-2.799-1.813 0 0 0 0zm-80.54 10.816c1.739 4.713 5.187 9.166 10.365 10.196 7.146 1.982 14.252-3.392 16.251-10.156-1.08-.03-3.228-.08-4.307-.1-1.81 3.272-4.778 6.564-8.886 6.245-4.138.37-7.246-2.833-9.006-6.215-1.469 0-2.948.01-4.417.03-1.47.02 0 0 0 0zm13.423 3.823c2.699.13 4.518-2.152 6.337-3.753-4.278-.16-8.566-.15-12.844-.02 1.86 1.641 3.718 4.013 6.507 3.773zM29.124 29.251c2.11-.06 4.218-.08 6.327-.03a40.716 40.716 0 00-1.979 3.602c4.358.38 8.516 2.782 10.745 6.595 1.12 2.23 1.949 4.613 3.088 6.854l.24 1.831c-10.355-.06-20.72.07-31.074-.08 2.318-3.623 2.788-8.396 6.166-11.357 2.25-2.332 5.378-3.493 8.546-3.833a30.242 30.242 0 00-2.059-3.582c-.77-1.141 0 0 0 0zm-3.188 9.716c1.779-1.43 4.058-1.901 6.177-2.571.11.82.21 1.65.32 2.48-3.749.562-6.537 3.094-7.887 6.565 6.487.14 12.984.1 19.47.02-1.179-4.993-4.927-9.645-10.324-10.146-6.477-1.01-12.534 4.502-12.934 10.896 2.48-1.851 2.689-5.404 5.178-7.244z"/></svg>