<svg xmlns="http://www.w3.org/2000/svg" width="45" height="45"><path fill="#6dc405" d="M45 6.973c0 .894-.744 1.622-1.662 1.622h-14.79v5.536a10.037 10.037 0 013.822-.752c5.406 0 9.81 4.258 9.884 9.518.338.298.552.727.552 1.205 0 11.52-9.601 20.895-21.403 20.895C9.601 44.997 0 35.623 0 24.102c0-.478.214-.907.552-1.205.074-5.26 4.478-9.518 9.884-9.518 1.354 0 2.645.27 3.822.754V8.595h-1.08c-.918 0-1.662-.728-1.662-1.622 0-.897.744-1.623 1.662-1.623h1.08V3.24h-1.08c-.918 0-1.662-.726-1.662-1.621 0-.897.744-1.622 1.662-1.622h30.16c.918 0 1.662.725 1.662 1.622 0 .895-.744 1.622-1.662 1.622h-14.79V5.35h14.79c.918 0 1.662.726 1.662 1.623zM25.225 3.24h-2.16v2.11h2.16zm-7.644 2.11h2.16V3.24h-2.16zm0 3.245v4.433c.688-.263 1.41-.457 2.16-.574v-3.86zM33.29 22.48a1.086 1.086 0 00-1.356-.41c.008.136.01.274.012.41zm-11.886-6.91c-3.934 0-7.141 3.087-7.218 6.91h2.6c.115-2.39 2.142-4.3 4.618-4.3 2.476 0 4.503 1.91 4.617 4.3h2.601c-.076-3.823-3.284-6.91-7.218-6.91zm0 5.854c-.642 0-1.176.458-1.28 1.056h2.56a1.292 1.292 0 00-1.28-1.056zm-10.53.645a1.091 1.091 0 00-1.356.411h1.344c.002-.137.005-.275.012-.411zm-6.975.41H6.07c.279-2.11 2.13-3.746 4.367-3.746.396 0 .779.053 1.144.15.268-.67.606-1.307 1.006-1.9a6.66 6.66 0 00-2.15-.359c-3.43 0-6.25 2.58-6.538 5.856zm35.51 3.246H3.398c.842 8.975 8.595 16.026 18.004 16.026S38.565 34.7 39.407 25.725zm-7.037-9.1a6.65 6.65 0 00-2.152.355c.4.594.738 1.23 1.007 1.901a4.464 4.464 0 011.145-.148c2.236 0 4.087 1.637 4.366 3.747h2.172c-.288-3.276-3.11-5.856-6.538-5.856zm-7.146-8.03h-2.16v3.86c.75.116 1.472.31 2.16.573z"/></svg>