<svg xmlns="http://www.w3.org/2000/svg" width="40" height="47"><path fill="#fff" d="M39.706 9.753L21.298 46.13a1.596 1.596 0 01-1.426.868 1.596 1.596 0 01-1.425-.868L.038 9.753a1.545 1.545 0 01.3-1.803C5.556 2.82 12.493-.003 19.872-.003c7.38 0 14.317 2.824 19.535 7.953.483.476.604 1.202.3 1.803zM3.411 9.391l1.231 2.433c4.205-3.67 9.56-5.675 15.23-5.675s11.026 2.006 15.23 5.675l1.232-2.433c-4.51-4.049-10.313-6.266-16.462-6.266-6.148 0-11.95 2.217-16.461 6.266zm9.947 13.653a3.59 3.59 0 001.782-2.125 3.52 3.52 0 00-.268-2.742 3.62 3.62 0 00-2.161-1.752 3.692 3.692 0 00-2.79.264 3.59 3.59 0 00-1.765 2.08l2.28 4.505c.045.01.09.02.134.033a3.697 3.697 0 002.788-.264zm10.49 11.02a6.38 6.38 0 01-.693.04c-3.412 0-6.187-2.729-6.187-6.083s2.775-6.082 6.187-6.082c2.26 0 4.24 1.198 5.32 2.981l5.15-10.177c-3.709-3.527-8.579-5.465-13.753-5.465-5.173 0-10.043 1.938-13.753 5.465l.357.705a6.806 6.806 0 011.95-1.522 6.901 6.901 0 015.215-.493 6.77 6.77 0 014.042 3.275 6.581 6.581 0 01.5 5.126 6.712 6.712 0 01-3.33 3.972 6.913 6.913 0 01-2.744.774l7.763 15.34zm2.311-6.043c0-1.628-1.347-2.953-3.004-2.953-1.656 0-3.004 1.325-3.004 2.953 0 1.629 1.348 2.953 3.004 2.953 1.657 0 3.004-1.324 3.004-2.953zM24 15.575a1.547 1.547 0 010-2.213c.622-.61 1.63-.61 2.251 0l2.626 2.582c.622.61.622 1.602 0 2.212-.31.305-.718.459-1.125.459a1.6 1.6 0 01-1.126-.46z"/></svg>