<svg xmlns="http://www.w3.org/2000/svg" width="50" height="38"><path fill="#fff" d="M38.134 37.996H11.891c-2.49 0-4.983-1.88-5.526-4.276-.706-3.122-2.504-12.552-2.504-12.552C1.948 19.678.655 17.973.16 15.843c-.547-2.346-.077-4.77 1.26-6.487 1.098-1.41 2.764-2.323 4.69-2.572 2.415-.31 5.024.432 7.173 2.035 1.424-5.08 6.146-8.822 11.74-8.822 5.636 0 10.388 3.798 11.772 8.938 2.128-1.545 4.687-2.256 7.06-1.95 1.926.247 3.59 1.16 4.689 2.571 2.55 3.273 1.528 8.56-2.386 11.612 0 0-1.792 9.43-2.498 12.552-.541 2.395-3.035 4.276-5.525 4.276zM16.146 11.502c1.569-.436 3.827-.276 7.044 1.323.477.236 1.374.905 2.09 1.462a10.16 10.16 0 011.228-1.1c2.333-1.77 5.175-2.283 7.397-1.508-.183-4.685-4.096-8.442-8.884-8.442-4.727 0-8.603 3.663-8.875 8.265zm-8.451 8.48h7.17L6.516 15.86a.965.965 0 01-.44-1.304.994.994 0 011.323-.435l11.87 5.86h3.899c-.138-.95-.015-1.952.35-2.932-.76-.6-1.57-1.205-1.813-1.333-1.208-.6-4.154-1.876-5.324-.72a1.66 1.66 0 01-1.504.442 1.64 1.64 0 01-1.195-1.003c-.447-1.14-1.252-2.174-2.327-2.99-1.478-1.124-3.236-1.652-4.822-1.447-.745.096-1.785.404-2.507 1.331-.734.943-.988 2.395-.664 3.788.323 1.383 1.337 3.385 4.332 4.864zm34.83 3.24H7.5l2.07 9.768c.251.927 1.35 1.765 2.32 1.765h26.244c.972 0 2.07-.838 2.321-1.765zm-7.613-3.24h5.502c1.232-.136 2.451-.665 3.525-1.48 2.574-1.954 3.469-5.081 1.995-6.972-.722-.927-1.761-1.236-2.506-1.332-1.586-.205-3.344.323-4.822 1.446-1.074.815-1.879 1.85-2.328 2.993a1.657 1.657 0 01-2.699.559c-1.036-1.026-3.308-.776-5.064.558-1.673 1.27-2.454 3.027-1.96 4.228h4.205l9.119-4.854a.995.995 0 011.337.393.965.965 0 01-.4 1.317l-5.904 3.144zM24.035 7.697V6.076a.98.98 0 01.986-.973.98.98 0 01.987.973v1.62a.98.98 0 01-.987.973.98.98 0 01-.986-.972zm3.918.865l.82-1.405a.994.994 0 011.348-.357.964.964 0 01.362 1.327l-.82 1.406a.988.988 0 01-1.348.356.964.964 0 01-.362-1.327zm-8.393-.434a.964.964 0 01.362-1.328.995.995 0 011.347.357l.822 1.405a.963.963 0 01-.362 1.327.988.988 0 01-1.347-.356z"/></svg>